<svg enable-background="new 0 0 356.4 62.8" viewBox="0 0 356.4 62.8" xmlns="http://www.w3.org/2000/svg"><g fill="#fff"><path d="m238.2 7.4-6.2 9.5-6.2-9.5h-33.8v6.7h10.2v24.2h8.3v-24.2h10.1l7.7 11.9v12.3h7.4v-12.3l12.1-18.6z"/><path d="m311.1 7.4h8.2v31h-8.2z"/><path d="m119.4 26.3c4.9-2.5 6.8-8.6 4.3-13.5-1.7-3.3-5.1-5.4-8.9-5.4h-48v6.7h10.2v24.3h8.3v-24.3h13.1v24.3h7.4v-24.3h7.9c1.8-.1 3.4 1.3 3.5 3.1s-1.3 3.4-3.1 3.5c-.1 0-.2 0-.4 0h-6l11.8 17.7h8.9z"/><path d="m333.8 31.3v-23.9h-8.2v30.9h21.7l4-7z"/><path d="m180.8 7.4h7.4v31h-7.4z"/><path d="m167.2 7.4v18l-14.6-18h-6.9v30.9h7.4v-17.9l14.5 17.9h7v-30.9z"/><path d="m131.5 7.4h7.4v31h-7.4z"/><path d="m295 7.4h-6.8l-12.8 27.8-6.7-8.9c4.9-2.5 6.9-8.5 4.3-13.5-1.7-3.3-5.2-5.4-8.9-5.4h-16.3v31h7.4v-24.2h7.9c1.8.1 3.2 1.7 3.1 3.5-.1 1.7-1.4 3-3.1 3.1h-6l11.8 17.7h13.5l2.4-5.9h13.5l2.5 5.9h8.5zm-7.6 18.9 4.2-10.3 4.2 10.3z"/><g clip-rule="evenodd" fill-rule="evenodd"><path d="m30.5 24.8h23.7l-23.7 21.4z"/><path d="m0 24.8h23.7v21.4z"/><path d="m27.1 0 27.1 17.7h-54.2z"/></g><path d="m171.9 51.9h6.2c.7-.1 1.4.1 1.9.5.6.6.8 1.5.7 2.3 0 1.6-.6 2.1-1.7 2.4 1.2.2 1.8.8 1.8 2.5.1.9-.1 1.8-.8 2.5-.5.4-1.2.6-1.9.6h-6.2zm5.4 4.4c.4 0 .5 0 .6-.1s.2-.4.2-1.1-.1-1-.2-1.1-.2-.1-.6-.1h-2.9v2.4zm.7 1.9c-.1-.1-.2-.1-.6-.1h-2.9v2.7h2.9c.4 0 .5 0 .6-.1s.2-.3.2-1.2 0-1.2-.2-1.3z"/><path d="m194.4 58.3c0 2.6-.3 3.2-.9 3.8s-1.2.7-2.6.7h-2.4c-1.4 0-2.1-.2-2.6-.6s-.8-1.2-.8-3.8v-6.4h2.6v6.6c0 1.5.1 1.7.3 1.9s.4.2 1.3.2h1c.8 0 1.1-.1 1.2-.2s.3-.4.3-1.9v-6.6h2.5z"/><path d="m199.2 62.8v-10.9h2.5v10.8h-2.5z"/><path d="m209.2 60.8h5.2v2h-7.7v-10.9h2.5z"/><path d="m222.1 53.9v8.8h-2.5v-8.8h-3.3v-2h9.1v2z"/><path d="m240.4 53.9v8.8h-2.5v-8.8h-3.3v-2h9.1v2z"/><path d="m253.7 51.9c.7-.1 1.4.1 2 .5.6.6 1.1 1.6 1.1 4.9s-.5 4.3-1.1 4.9c-.6.4-1.3.6-2 .5h-3.4c-.7.1-1.4-.1-2-.5-.6-.6-1.1-1.6-1.1-4.9s.5-4.3 1.1-4.9c.6-.5 1.3-.6 2-.5zm-3.5 8.7c.1.1.2.1.8.1h2.1c.5 0 .6 0 .7-.1s.3-.5.3-3.3-.2-3.1-.3-3.3-.2-.2-.7-.2h-2.1c-.5 0-.6 0-.8.2s-.3.5-.3 3.3.2 3.2.3 3.3z"/><path d="m272.5 51.9c1.5 0 2.4.2 3 .8s1.1 1.9 1.1 4.6-.4 3.9-1.1 4.6c-.8.7-1.9 1-3 .8h-5.1v-10.8zm1 2.3c-.3-.2-.5-.3-1.2-.3h-2.4v6.9h2.4c.7 0 1-.1 1.2-.3s.5-.9.5-3.1-.1-2.9-.5-3.2z"/><path d="m289.2 62.8h-8.2v-10.9h8.1v2h-5.6v2.3h4.4v1.9h-4.4v2.6h5.6z"/><path d="m296 60.8h5.2v2h-7.7v-10.9h2.5z"/><path d="m305.3 62.8v-10.9h2.5v10.8h-2.5z"/><path d="m318.9 62.1c-.2.6-.4.7-.9.7h-2.1c-.6 0-.7-.2-.9-.7l-3.2-10.2h2.8l2.4 8.6h.2l2.4-8.6h2.6z"/><path d="m334.1 62.8h-8.1v-10.9h8.1v2h-5.6v2.3h4.4v1.9h-4.4v2.6h5.6z"/><path d="m344.4 58.9c-.2-.2-.4-.2-1.1-.2h-2.3v4.1h-2.5v-10.9h6.4c.6-.1 1.3.1 1.8.5s.7 1 .7 2.6c0 2-.6 2.5-1.8 2.7 1.1.2 1.7.6 1.7 2.1 0 1.3.1 2.3.2 2.9h-2.6c-.1-.9-.2-1.8-.2-2.7-.1-.8-.2-.9-.3-1.1zm-.7-2.1c.5 0 .7-.1.8-.1s.3-.4.3-1.3-.1-1.2-.3-1.3-.2-.1-.8-.1h-2.7v2.9z"/><path d="m353.7 51.9c1.5 0 2.7 1.2 2.7 2.7s-1.2 2.7-2.7 2.7-2.7-1.2-2.7-2.7c0-1.4 1.1-2.7 2.7-2.7-.1 0 0 0 0 0zm.1.4c-1.3-.1-2.3.9-2.4 2.2s.9 2.3 2.2 2.4 2.3-.9 2.4-2.2v-.1c0-1.2-.9-2.2-2.2-2.3zm-.5 3.9h-.5v-3c.3 0 .6-.1.9-.1s.7.1.9.2.3.4.3.6c0 .4-.2.7-.6.7.3 0 .4.3.5.7 0 .3.1.5.2.8h-.5c-.1-.2-.2-.5-.2-.8s-.3-.6-.6-.5h-.3zm0-1.7h.4c.4 0 .7-.2.7-.5s-.2-.5-.7-.5c-.1 0-.2 0-.4 0z"/></g></svg>