<?xml version="1.0" standalone="no"?>
<!DOCTYPE svg PUBLIC "-//W3C//DTD SVG 20010904//EN"
 "http://www.w3.org/TR/2001/REC-SVG-20010904/DTD/svg10.dtd">
<svg version="1.0" xmlns="http://www.w3.org/2000/svg"
 width="100pt"  viewBox="0 0 813.000000 858.000000"
 preserveAspectRatio="xMidYMid meet">

<g transform="translate(0.000000,858.000000) scale(0.100000,-0.100000)"
fill="#0EA5E9" stroke="none">
<path d="M3830 8234 c-25 -2 -106 -8 -180 -14 -253 -21 -582 -87 -849 -170
-57 -18 -111 -40 -121 -50 -29 -29 -58 -42 -62 -28 -5 15 -50 0 -228 -78 -253
-111 -503 -256 -700 -406 -134 -101 -198 -162 -257 -241 -26 -34 -50 -57 -62
-57 -12 0 -79 -64 -174 -167 -181 -195 -205 -225 -310 -392 -70 -113 -77 -128
-76 -172 2 -52 -14 -91 -91 -214 -114 -184 -209 -378 -310 -635 -35 -89 -62
-145 -71 -146 -8 0 -22 -2 -31 -2 -26 -3 -22 -39 5 -49 l23 -8 -37 -138 c-77
-280 -125 -580 -136 -850 -6 -156 -7 -159 -30 -168 -30 -11 -27 -43 3 -47 20
-3 21 -11 27 -165 11 -270 58 -573 132 -843 19 -69 35 -130 35 -134 0 -4 -9
-10 -21 -13 -33 -9 -20 -41 18 -45 24 -2 33 -9 38 -30 18 -74 105 -286 180
-439 87 -179 160 -310 252 -450 46 -70 53 -85 43 -103 -14 -27 -5 -40 28 -40
22 0 42 -19 114 -113 159 -206 351 -405 570 -590 34 -29 62 -46 69 -41 7 4 9
3 5 -4 -3 -6 9 -23 28 -37 19 -15 36 -36 38 -48 2 -16 11 -23 33 -25 16 -2 63
-27 105 -56 251 -176 591 -350 882 -452 57 -20 107 -40 113 -45 5 -5 21 -9 36
-9 15 0 31 -5 34 -10 3 -6 0 -10 -7 -10 -8 0 -19 -18 -25 -40 l-10 -40 82 -25
c193 -59 502 -114 766 -136 187 -16 573 -6 765 20 189 26 399 69 580 120 144
41 322 102 352 121 15 10 15 11 -3 5 -92 -32 -137 -38 -160 -20 -17 13 -18 17
-5 25 8 5 18 6 22 4 4 -3 8 0 8 6 0 7 -12 10 -27 8 -14 -2 -28 2 -30 9 -3 7 3
10 15 6 10 -2 55 7 98 21 171 57 160 56 169 16 9 -40 18 -44 46 -19 13 11 19
18 12 15 -6 -4 -16 7 -22 24 -5 17 -7 30 -3 31 4 0 -1 4 -12 8 -14 5 0 15 65
45 113 50 310 157 305 165 -3 4 3 7 12 7 17 0 217 124 283 176 20 15 48 28 61
28 27 0 48 17 43 34 -2 6 29 37 70 69 42 33 72 63 69 69 -4 7 -2 8 4 4 14 -8
178 137 174 154 -1 6 1 9 6 6 12 -7 84 68 75 78 -5 4 -1 6 7 4 8 -2 14 3 12
10 -1 8 1 11 6 8 21 -13 351 371 338 393 -15 24 -50 3 -103 -64 -31 -38 -72
-87 -90 -108 -19 -21 -31 -43 -27 -49 4 -6 3 -8 -3 -5 -15 9 -77 -59 -68 -74
5 -7 4 -10 -2 -6 -13 8 -46 -27 -36 -38 5 -4 3 -5 -3 -2 -12 7 -127 -105 -119
-116 3 -4 2 -5 -1 -2 -10 7 -135 -106 -128 -116 3 -5 0 -8 -8 -7 -7 2 -12 -2
-11 -9 3 -16 -55 -63 -70 -57 -7 2 -22 -4 -32 -16 -10 -11 -15 -20 -10 -20 12
0 -16 -29 -49 -51 -24 -16 -22 -12 9 15 56 50 36 45 -33 -9 -54 -42 -61 -45
-119 -45 -35 0 -63 2 -63 5 0 3 16 19 35 36 19 17 32 36 28 42 -3 6 -1 7 6 3
17 -11 175 145 159 157 -9 6 -8 7 4 3 20 -6 122 100 112 116 -4 6 -2 8 3 5 17
-10 197 211 312 381 l42 62 114 0 c74 0 115 -4 115 -11 0 -5 5 -7 10 -4 6 4
17 2 24 -4 10 -8 17 -7 26 4 7 8 23 15 37 15 28 0 40 24 23 45 -10 12 3 31 73
107 140 152 231 277 269 369 21 51 25 53 69 35 12 -5 25 16 62 103 26 61 47
113 47 116 0 3 -7 5 -15 5 -20 0 -19 9 6 75 18 48 23 54 39 45 16 -9 21 -3 40
47 12 31 19 65 17 75 -3 10 -1 16 3 13 11 -7 32 59 84 271 42 172 65 305 86
509 5 50 16 142 24 205 42 327 24 675 -55 1060 -25 126 -39 182 -79 325 -108
391 -293 786 -532 1140 -126 186 -271 366 -291 362 -7 -1 -11 5 -9 14 3 20
-184 216 -333 349 -185 166 -350 290 -561 423 -92 58 -111 66 -98 45 4 -7 3
-8 -5 -4 -6 4 -9 11 -7 15 5 8 -116 78 -249 144 -123 61 -293 127 -327 127 -8
0 -36 11 -62 25 -26 14 -49 25 -51 25 -3 0 -8 -15 -13 -32 -7 -27 -13 -32 -33
-30 -40 4 -51 23 -34 55 13 26 13 28 -11 37 -48 18 -77 23 -70 12 3 -6 1 -14
-5 -17 -5 -4 -8 -13 -5 -21 9 -22 -23 -29 -53 -12 -14 9 -41 19 -59 23 -31 6
-36 25 -6 25 8 0 12 -4 9 -10 -3 -5 -1 -10 4 -10 6 0 11 5 11 11 0 7 10 9 24
7 16 -3 27 0 31 10 7 18 8 18 -35 26 -25 4 -31 3 -20 -4 12 -8 9 -10 -14 -10
-24 0 -27 2 -16 15 7 8 9 15 4 15 -30 0 -170 30 -319 67 -83 21 -200 39 -330
52 -121 12 -424 21 -495 15z m469 -130 c9 -8 -5 -12 -54 -16 -27 -3 -40 -3
-27 -1 12 2 22 11 22 19 0 11 7 13 28 8 15 -4 29 -8 31 -10z m281 -29 c0 -20
5 -25 25 -25 14 0 25 6 25 13 0 8 3 9 8 1 4 -6 17 -16 30 -23 18 -10 22 -9 22
4 0 18 10 19 62 3 25 -7 37 -16 34 -25 -3 -7 -1 -13 4 -13 6 0 10 7 10 15 0
22 31 18 37 -4 6 -24 54 -35 69 -15 17 21 37 17 31 -6 -7 -27 41 -41 55 -16
10 18 48 22 48 5 0 -6 -5 -19 -10 -30 -8 -14 -7 -19 2 -19 11 0 11 -2 0 -8 -7
-5 -108 -9 -225 -11 -117 -1 -227 -4 -244 -7 -26 -5 -33 -3 -33 10 0 13 14 16
83 18 45 1 118 0 162 -1 88 -3 94 9 15 29 -25 6 -63 16 -85 21 -22 6 -56 13
-75 16 -19 3 -41 10 -49 16 -7 7 -25 10 -40 9 -16 -2 -35 5 -48 18 -12 11 -25
20 -28 20 -10 0 -5 -39 6 -45 6 -5 4 -11 -7 -19 -22 -16 -10 -36 22 -36 39 0
28 -17 -20 -29 -59 -15 -106 -14 -106 2 -1 10 -28 -17 -72 -71 -7 -9 -21 -12
-39 -8 -16 3 -29 1 -29 -4 0 -6 -18 -10 -40 -10 -35 0 -40 -3 -40 -24 0 -23
-22 -51 -32 -41 -2 2 -5 -16 -7 -41 -3 -67 -29 -87 -83 -64 -13 5 -42 14 -66
20 -23 6 -40 15 -37 19 6 11 -23 36 -32 27 -4 -4 -1 -11 7 -16 8 -6 10 -10 4
-10 -16 0 -35 25 -26 35 4 5 1 5 -6 1 -16 -9 -46 20 -36 35 5 8 3 9 -5 5 -8
-5 -14 0 -18 13 -3 12 -9 21 -13 21 -4 0 -11 16 -14 35 -5 25 -3 40 8 50 16
17 30 20 21 6 -3 -5 -1 -12 5 -16 13 -8 13 -52 -1 -57 -14 -5 0 -38 17 -38 9
0 12 10 10 31 -2 17 3 36 11 45 13 12 13 16 0 29 -8 8 -16 13 -18 12 -3 -1 2
4 10 11 20 16 29 15 49 -5 12 -12 13 -18 4 -21 -16 -5 -15 -22 2 -22 16 0 31
31 18 39 -5 3 -12 18 -16 34 -5 20 -12 27 -31 27 -27 0 -30 6 -15 30 8 12 13
13 29 3 12 -8 21 -9 23 -2 10 31 321 67 338 38 4 -6 24 -11 44 -11 20 0 36 -4
36 -9 0 -5 18 -9 39 -9 25 0 41 -5 45 -15 9 -25 21 -17 20 15 -1 28 -14 58
-14 32 0 -7 -16 -12 -40 -12 -43 0 -43 0 -34 24 5 13 24 16 101 16 90 0 94 -1
88 -20 -5 -16 -2 -20 17 -19 13 0 17 3 11 6 -25 10 -12 39 20 42 4 1 7 -10 7
-24z m307 19 c-3 -3 -12 -4 -19 -1 -8 3 -5 6 6 6 11 1 17 -2 13 -5z m-7 -34
c0 -5 -4 -10 -10 -10 -5 0 -10 5 -10 10 0 6 5 10 10 10 6 0 10 -4 10 -10z
m-1301 -25 c-10 -9 -64 -9 -67 0 -3 12 61 24 67 12 1 -5 1 -10 0 -12z m-98 -8
c-1 -12 -15 -9 -19 4 -3 6 1 10 8 8 6 -3 11 -8 11 -12z m339 4 c0 -5 -10 -11
-22 -14 -22 -6 -22 -6 -4 8 23 17 26 18 26 6z m1334 0 c10 -16 -5 -41 -25 -41
-10 0 -19 5 -19 10 0 6 7 10 15 10 18 0 20 16 3 23 -8 3 -7 6 4 6 9 1 19 -3
22 -8z m-1489 -21 c-3 -5 -10 -10 -16 -10 -5 0 -9 5 -9 10 0 6 7 10 16 10 8 0
12 -4 9 -10z m162 -6 c-3 -3 -12 -4 -19 -1 -8 3 -5 6 6 6 11 1 17 -2 13 -5z
m698 -4 c3 -5 -1 -10 -9 -10 -9 0 -16 5 -16 10 0 6 4 10 9 10 6 0 13 -4 16
-10z m-772 -17 c14 -14 -17 -33 -54 -33 -27 0 -39 4 -39 14 0 19 78 35 93 19z
m52 -20 c-17 -16 -37 -9 -29 11 3 8 14 12 24 9 17 -5 17 -7 5 -20z m1325 -3
c12 -8 11 -10 -7 -10 -12 0 -25 5 -28 10 -8 13 15 13 35 0z m76 -26 c13 -3 24
-10 24 -15 0 -12 -17 -11 -25 1 -3 6 -15 10 -25 10 -10 0 -22 5 -26 12 -5 8
-2 9 10 5 10 -4 29 -10 42 -13z m-1466 -4 c0 -5 -20 -10 -45 -10 -25 0 -45 5
-45 10 0 6 20 10 45 10 25 0 45 -4 45 -10z m-213 -22 c-3 -8 -6 -5 -6 6 -1 11
2 17 5 13 3 -3 4 -12 1 -19z m33 18 c0 -3 -4 -8 -10 -11 -5 -3 -10 -1 -10 4 0
6 5 11 10 11 6 0 10 -2 10 -4z m1650 -81 c9 -8 21 -15 27 -15 19 0 158 -72
176 -91 23 -24 14 -24 -32 0 -108 57 -324 151 -347 151 -8 0 -14 6 -14 14 0
11 20 7 87 -15 48 -16 94 -36 103 -44z m-365 55 c3 -5 -1 -10 -9 -10 -8 0 -18
5 -21 10 -3 6 1 10 9 10 8 0 18 -4 21 -10z m372 -11 c34 -11 69 -30 79 -41 11
-12 14 -19 9 -17 -6 2 -48 17 -93 33 -45 16 -82 33 -82 38 0 13 21 10 87 -13z
m189 9 c4 -5 -4 -8 -19 -8 -14 0 -28 4 -31 8 -6 10 40 10 50 0z m130 -51 c6 2
23 -10 37 -27 14 -16 29 -30 33 -30 4 0 14 -8 23 -17 21 -23 48 -40 94 -60 23
-10 36 -22 35 -32 -2 -11 3 -15 16 -13 12 2 15 -1 11 -8 -5 -8 -2 -10 11 -6
14 4 37 -11 87 -59 68 -64 68 -65 38 -65 -21 0 -40 10 -61 31 -16 17 -27 35
-24 40 3 5 0 9 -5 9 -6 0 -11 -4 -11 -10 0 -15 -16 -12 -34 5 -8 8 -18 15 -23
15 -5 0 -25 11 -46 25 -20 14 -37 21 -37 16 0 -5 5 -13 10 -16 15 -9 12 -45
-4 -45 -7 0 -28 11 -47 24 -19 14 -64 45 -102 71 -60 41 -67 48 -61 71 5 18 1
31 -15 45 -11 11 -21 23 -21 28 0 4 -15 15 -32 25 -18 9 -25 14 -15 11 10 -3
28 -5 40 -5 15 0 27 -10 36 -32 8 -18 16 -27 19 -20 5 15 29 16 34 0 3 -7 11
-9 24 -4 15 7 16 9 4 13 -39 12 -60 28 -60 47 0 19 2 19 18 -5 9 -14 22 -24
28 -22z m-2316 13 c0 -5 -4 -10 -10 -10 -5 0 -10 5 -10 10 0 6 5 10 10 10 6 0
10 -4 10 -10z m200 0 c0 -5 -7 -10 -15 -10 -8 0 -15 5 -15 10 0 6 7 10 15 10
8 0 15 -4 15 -10z m1311 1 c51 10 67 9 116 -6 54 -17 55 -18 32 -31 -13 -7
-32 -13 -41 -14 -10 0 -18 -5 -18 -11 0 -27 -130 11 -185 55 -19 15 -19 16 9
6 20 -7 46 -7 87 1z m-1451 -21 c0 -5 -4 -10 -10 -10 -5 0 -10 5 -10 10 0 6 5
10 10 10 6 0 10 -4 10 -10z m1683 -4 c4 -10 1 -13 -8 -9 -8 3 -12 9 -9 14 7
12 11 11 17 -5z m-1723 -16 c0 -5 -4 -10 -10 -10 -5 0 -10 5 -10 10 0 6 5 10
10 10 6 0 10 -4 10 -10z m100 -20 c0 -5 -7 -10 -15 -10 -8 0 -15 5 -15 10 0 6
7 10 15 10 8 0 15 -4 15 -10z m418 -58 c-6 -15 -12 -31 -14 -37 -1 -5 -11 -44
-22 -85 -12 -41 -19 -77 -16 -79 2 -2 4 1 4 8 0 14 41 -10 85 -50 17 -15 49
-35 72 -44 50 -20 69 -65 26 -65 -7 0 -13 11 -13 25 0 23 -2 24 -20 15 -24
-13 -26 -36 -4 -44 24 -9 447 -7 462 3 11 7 11 17 -2 61 -9 30 -16 64 -16 77
0 14 -4 21 -10 18 -6 -4 -10 5 -10 21 0 15 -4 41 -9 58 -5 17 -15 51 -22 76
-7 25 -17 51 -23 59 -9 11 -8 13 4 9 8 -2 23 -29 33 -59 31 -92 76 -266 79
-299 l2 -31 308 2 c170 0 310 4 311 8 6 11 -8 66 -16 64 -4 -2 -7 0 -6 3 0 4
-3 10 -8 13 -4 3 -17 23 -28 43 -10 20 -23 34 -28 31 -6 -3 -7 -1 -3 5 3 6 2
13 -4 17 -5 3 -15 16 -21 28 -9 19 -8 19 11 -3 48 -56 57 -68 104 -137 l48
-71 151 -1 c142 -1 167 -4 155 -16 -8 -8 -1748 -6 -1761 2 -15 9 -48 5 -64 -9
-9 -7 -13 -7 -13 1 0 22 -18 10 -23 -15 -9 -47 2 -64 39 -64 27 0 37 5 46 25
6 14 19 25 30 25 24 0 23 -5 -7 -44 -27 -35 -34 -93 -12 -102 11 -4 11 -19 0
-87 -7 -45 -18 -90 -23 -99 -6 -10 -10 -29 -10 -43 0 -18 -5 -25 -20 -25 -15
0 -20 7 -20 25 0 30 -9 31 -38 5 -25 -24 -26 -29 -12 -65 9 -23 14 -25 45 -19
43 8 43 13 15 -191 -18 -134 -19 -168 -5 -154 2 3 16 88 30 189 14 102 30 205
35 230 5 25 12 68 15 95 3 28 10 68 14 90 5 22 18 79 28 127 11 54 23 88 31
88 6 0 12 -4 12 -10 0 -5 7 -10 15 -10 8 0 15 -8 15 -19 0 -10 6 -24 14 -30 8
-7 14 -35 15 -73 2 -58 5 -66 39 -103 21 -22 50 -56 64 -75 15 -19 40 -51 58
-70 27 -31 29 -31 14 -6 -18 29 -18 29 5 21 13 -4 21 -3 18 2 -3 5 2 9 11 9 9
0 27 4 40 8 19 7 22 4 22 -23 0 -16 3 -36 6 -45 5 -12 -1 -16 -22 -17 -21 -1
-24 -3 -9 -6 11 -3 27 -12 36 -20 19 -16 40 -19 90 -9 26 6 39 4 48 -8 8 -9
19 -16 27 -16 7 0 27 -21 45 -46 21 -31 46 -53 75 -66 24 -10 44 -24 44 -29 0
-6 -11 -25 -25 -43 -32 -43 -56 -101 -49 -120 5 -13 23 -16 85 -16 l79 0 0 36
c0 21 4 33 10 29 6 -3 10 -19 10 -36 0 -20 5 -29 16 -29 12 0 14 7 10 28 -3
15 -10 68 -16 117 -5 50 -19 151 -31 225 -11 74 -22 149 -23 165 -1 17 -7 55
-13 85 -16 74 -33 170 -33 187 0 29 18 10 28 -29 15 -61 67 -351 87 -493 10
-66 19 -122 21 -124 2 -2 10 4 20 13 18 18 34 16 100 -15 69 -32 87 -20 34 24
-58 49 -31 50 67 2 39 -19 75 -39 78 -45 4 -7 19 -8 36 -5 16 4 29 4 29 1 0
-12 -24 -56 -30 -56 -4 0 -10 -9 -13 -20 -4 -14 -14 -20 -35 -20 -46 0 -62 10
-62 37 0 19 -4 24 -16 19 -9 -3 -24 -6 -34 -6 -25 0 -33 -48 -9 -60 10 -6 27
-10 38 -10 12 0 21 -4 21 -10 0 -6 120 -10 339 -10 l339 0 -50 133 c-27 72
-61 161 -76 195 -49 116 -183 387 -192 390 -6 2 -10 12 -10 21 0 10 -9 28 -20
41 -15 18 -18 26 -9 34 8 8 13 7 16 -1 3 -7 15 -13 27 -13 13 0 36 -6 52 -14
16 -8 43 -20 59 -27 22 -9 25 -13 13 -16 -9 -2 -40 6 -68 18 -28 12 -53 19
-56 16 -3 -3 6 -24 21 -46 30 -49 180 -348 190 -382 4 -13 17 -44 27 -69 11
-25 27 -59 34 -77 8 -18 23 -58 33 -90 10 -32 25 -70 32 -85 l12 -28 283 0
c156 0 285 -4 288 -8 9 -15 -267 -20 -1323 -21 -569 -1 -1038 -4 -1043 -7 -4
-3 -14 -2 -20 3 -16 10 23 9 -493 12 -242 2 -426 7 -410 11 27 7 25 8 -17 9
-26 0 -50 -4 -53 -9 -4 -6 -26 -10 -50 -9 -24 2 -42 6 -39 11 3 4 1 8 -5 8 -5
0 -11 -5 -13 -11 -3 -9 -14 -9 -42 1 -20 6 -53 10 -72 8 -33 -4 -34 -3 -34 29
0 41 32 106 61 127 17 11 26 12 46 3 23 -10 29 -8 57 24 33 37 77 69 97 69 13
0 13 1 -40 -147 -22 -63 -35 -110 -28 -107 7 2 27 48 46 102 18 53 38 112 45
130 7 20 18 32 28 32 22 0 22 1 2 -45 -8 -20 -13 -39 -11 -41 2 -3 12 16 21
41 10 25 24 45 32 45 10 0 14 12 14 41 0 55 44 99 99 99 42 0 132 28 128 40
-4 15 54 60 79 60 26 0 47 31 26 38 -7 2 -10 8 -6 13 3 5 -6 9 -19 9 -14 0
-28 -7 -31 -16 -3 -8 -2 -12 4 -9 6 3 10 1 10 -5 0 -6 -10 -10 -22 -8 -29 4
-38 60 -14 84 20 20 20 34 1 34 -21 0 -19 30 3 46 26 20 32 17 26 -16 -5 -24
-3 -30 11 -30 13 0 16 -6 12 -21 -4 -15 1 -22 19 -29 13 -5 24 -14 24 -20 0
-5 5 -10 11 -10 5 0 8 4 5 8 -2 4 4 18 14 31 13 18 16 32 10 53 -5 17 -5 30 1
34 10 6 77 -1 126 -13 21 -5 22 -2 17 26 -6 26 -4 31 13 31 11 0 25 -11 31
-25 16 -35 42 -31 90 13 39 36 41 40 32 73 -12 42 -12 42 2 33 7 -4 8 -3 4 4
-4 7 -23 12 -42 12 -19 0 -34 5 -34 10 0 6 -7 10 -15 10 -8 0 -15 5 -15 10 0
6 9 10 19 10 22 0 41 42 22 48 -15 5 -14 32 2 32 7 0 18 -9 25 -21 11 -16 20
-20 42 -15 16 3 32 1 35 -4 4 -6 -1 -7 -11 -3 -12 4 -15 3 -10 -5 5 -8 -1 -12
-18 -12 -14 0 -26 -4 -26 -10 0 -5 -9 -10 -20 -10 -11 0 -20 -4 -20 -10 0 -5
9 -10 20 -10 11 0 20 5 20 10 0 6 5 10 10 10 6 0 10 -9 10 -20 0 -11 5 -20 10
-20 6 0 10 5 10 11 0 6 6 9 13 6 10 -4 13 2 9 19 -2 14 0 24 7 24 7 0 11 -8 9
-17 -2 -11 3 -18 12 -18 8 0 16 8 18 18 2 10 -3 17 -11 17 -8 0 -17 10 -21 23
-4 19 -11 22 -39 19 -22 -2 -38 2 -46 12 -8 9 -20 16 -28 16 -8 0 -12 4 -9 9
3 4 1 23 -4 40 l-9 32 145 -3 c165 -3 154 6 124 -108 -11 -41 -20 -78 -20 -82
0 -14 27 -9 27 5 1 6 8 44 17 82 9 39 18 75 19 82 2 7 6 16 10 19 4 4 7 15 7
25 0 18 22 94 48 168 14 40 16 43 23 23 5 -13 4 -33 -3 -50z m1262 58 c0 -5
-2 -10 -4 -10 -3 0 -8 5 -11 10 -3 6 -1 10 4 10 6 0 11 -4 11 -10z m-1763 -30
c-2 -24 -12 -26 -21 -4 -3 8 -2 12 4 9 6 -3 10 -1 10 4 0 6 2 11 4 11 3 0 4
-9 3 -20z m43 -20 c0 -13 -5 -18 -15 -14 -11 5 -12 9 -2 20 16 18 17 17 17 -6z
m1800 10 c0 -5 6 -10 13 -10 7 0 30 -16 51 -35 21 -19 43 -32 50 -28 7 4 7 2
-1 -7 -9 -10 -18 -8 -42 13 -17 14 -40 28 -51 32 -11 3 -20 11 -20 16 0 5 -6
9 -14 9 -8 0 -18 5 -21 10 -3 6 3 10 14 10 12 0 21 -4 21 -10z m676 -2 c4 -6
3 -8 -4 -4 -6 3 -13 2 -17 -4 -3 -5 -11 -10 -18 -10 -6 0 -2 7 9 15 23 18 21
17 30 3z m-2756 -20 c0 -4 -9 -8 -20 -8 -11 0 -20 4 -20 8 0 4 9 8 20 8 11 0
20 -4 20 -8z m100 2 c0 -5 -10 -10 -22 -9 -22 0 -22 1 -3 9 11 5 21 9 23 9 1
1 2 -3 2 -9z m2720 -20 c0 -5 -7 -7 -15 -4 -8 4 -15 8 -15 10 0 2 7 4 15 4 8
0 15 -4 15 -10z m-3017 -7 c9 -8 -22 -43 -37 -43 -6 0 -17 -9 -24 -21 -7 -12
-16 -18 -19 -15 -3 3 -36 -20 -73 -52 -97 -83 -123 -102 -137 -102 -7 0 -13 2
-13 3 0 7 35 42 68 70 19 15 30 27 27 27 -4 0 -30 -19 -58 -42 l-50 -42 -28
34 c-16 19 -29 40 -29 47 0 13 82 63 167 102 37 17 56 21 65 14 29 -23 63 -22
93 3 32 26 38 28 48 17z m1932 -2 c3 -5 2 -12 -3 -15 -5 -3 -9 1 -9 9 0 17 3
19 12 6z m-1805 -46 c-7 -9 -15 -13 -17 -11 -6 6 20 36 26 30 2 -2 -2 -10 -9
-19z m275 5 c-14 -15 -21 -17 -26 -8 -11 17 -2 28 23 28 21 0 21 -1 3 -20z
m1582 -15 c18 -19 29 -35 24 -35 -4 0 -22 16 -40 35 -17 19 -28 35 -24 35 5 0
23 -16 40 -35z m-1514 -9 c15 -3 27 -13 27 -21 0 -8 5 -15 10 -15 6 0 10 -13
10 -30 0 -16 -4 -30 -8 -30 -10 0 -32 45 -32 64 0 17 -33 26 -51 15 -8 -5 -23
-9 -33 -9 -18 0 -18 2 4 25 14 15 27 21 34 16 6 -4 23 -11 39 -15z m1959 10
c10 -7 15 -16 12 -19 -9 -8 -44 11 -44 23 0 13 12 12 32 -4z m-2792 -38 c0
-12 -10 -9 -26 6 -20 21 -17 28 6 14 11 -7 20 -16 20 -20z m340 12 c0 -5 7
-10 15 -10 9 0 20 -11 27 -25 9 -21 7 -29 -16 -60 -22 -28 -24 -36 -12 -41 12
-5 11 -9 -6 -26 -11 -11 -22 -17 -26 -14 -3 4 3 12 13 20 31 22 0 28 -60 11
-58 -17 -85 -43 -85 -82 0 -18 -6 -23 -25 -23 -16 0 -23 4 -19 13 2 7 -2 30
-11 50 -8 20 -15 38 -15 41 0 3 43 39 96 80 90 71 124 89 124 66z m480 -36 c0
-13 -4 -24 -8 -24 -5 0 -8 13 -8 29 0 17 3 28 8 25 4 -3 8 -16 8 -30z m2040
11 c30 -32 10 -33 -27 0 -20 17 -23 24 -12 25 8 0 26 -11 39 -25z m660 15 c0
-5 -7 -7 -15 -4 -8 4 -15 8 -15 10 0 2 7 4 15 4 8 0 15 -4 15 -10z m60 -22 c0
-14 -19 -18 -27 -6 -16 26 -12 38 8 25 10 -6 19 -15 19 -19z m-2880 -8 c0 -24
-6 -25 -26 -6 -19 20 -18 26 6 26 13 0 20 -7 20 -20z m2236 11 c-3 -5 15 -14
39 -21 31 -9 45 -18 45 -30 0 -12 21 -28 63 -49 34 -17 86 -49 114 -71 45 -34
63 -40 120 -46 62 -7 65 -8 36 -16 -33 -9 -42 -21 -23 -33 23 -14 7 -25 -35
-25 -25 0 -45 -4 -45 -9 0 -13 -49 -20 -57 -9 -3 6 1 14 8 19 12 8 12 10 -1
18 -8 5 -18 7 -22 5 -5 -3 -11 3 -15 13 -4 10 -13 24 -21 32 -8 8 -11 24 -7
38 4 17 1 25 -12 30 -10 4 -24 13 -32 20 -7 8 -22 11 -33 7 -13 -4 -24 1 -33
13 -7 10 -17 18 -22 18 -20 1 -83 52 -83 68 0 9 -4 17 -10 17 -5 0 -10 5 -10
10 0 6 9 10 21 10 11 0 18 -4 15 -9z m-2140 -31 c0 -11 -4 -20 -8 -20 -4 0 -8
9 -8 20 0 11 4 20 8 20 4 0 8 -9 8 -20z m2584 -55 c13 -17 13 -18 0 -10 -30
16 -60 49 -60 64 0 16 20 -3 60 -54z m-2630 45 c0 -5 -7 -10 -15 -10 -8 0 -15
5 -15 10 0 6 7 10 15 10 8 0 15 -4 15 -10z m2868 1 c8 -4 13 -11 12 -15 -3
-21 22 -40 54 -41 20 -1 37 -5 37 -11 2 -19 41 -64 55 -64 11 0 13 -6 9 -20
-8 -24 11 -26 39 -5 18 13 22 13 38 -5 21 -22 24 -50 6 -51 -10 0 -10 -2 0 -6
6 -2 12 -9 12 -15 0 -13 26 -38 40 -38 6 0 18 -7 26 -15 9 -8 27 -18 42 -22
34 -8 47 -21 65 -64 18 -43 50 -79 70 -79 8 0 17 -4 19 -10 2 -5 17 -10 34
-12 21 -1 30 -7 31 -20 2 -19 -12 -24 -22 -8 -3 6 -15 10 -26 10 -10 0 -19 -4
-19 -10 0 -5 9 -10 20 -10 13 0 20 -7 20 -20 0 -11 5 -20 11 -20 5 0 8 -3 5
-8 -2 -4 2 -16 10 -27 12 -16 14 -17 14 -2 0 9 -5 17 -12 17 -9 0 -9 3 -1 11
6 6 9 18 6 25 -4 10 0 12 13 7 12 -4 15 -3 10 6 -6 9 -3 9 13 -1 24 -14 28
-28 8 -28 -20 0 -19 -51 0 -66 28 -21 45 -17 38 9 -7 22 -7 22 9 2 21 -27 20
-45 -4 -45 -11 0 -20 -4 -20 -10 0 -5 14 -10 30 -10 23 0 30 -4 30 -20 0 -11
-5 -20 -11 -20 -5 0 -7 -4 -4 -10 11 -18 35 -11 35 10 0 24 6 25 27 4 14 -14
14 -16 -5 -21 -22 -5 -31 -26 -24 -55 2 -9 10 -14 18 -11 16 6 19 -13 4 -22
-6 -4 -8 -11 -4 -16 3 -5 9 -7 14 -4 4 3 10 -2 14 -10 3 -9 0 -15 -9 -15 -8 0
-15 5 -15 11 0 6 -9 8 -20 4 -18 -6 -20 -3 -14 21 5 20 4 25 -6 19 -16 -10
-31 14 -24 38 3 9 0 17 -6 17 -6 0 -8 -4 -5 -10 3 -5 3 -10 -1 -10 -8 0 -54
52 -54 62 0 4 -13 15 -30 25 -16 9 -30 25 -30 35 0 12 -7 18 -22 17 -36 -1
-90 24 -128 59 -19 18 -43 35 -52 38 -10 3 -18 10 -18 15 0 5 -14 9 -30 9 -24
0 -29 -3 -23 -14 7 -12 76 -72 176 -152 10 -8 29 -19 43 -24 13 -5 24 -14 24
-19 0 -6 6 -8 13 -5 7 2 25 -6 39 -19 14 -13 33 -27 43 -30 9 -4 13 -11 10
-17 -3 -5 8 -30 25 -55 30 -44 34 -75 9 -75 -7 0 -9 -10 -5 -27 4 -16 3 -23
-1 -18 -4 6 -21 17 -38 25 -16 8 -38 21 -49 30 -10 8 -21 15 -25 15 -6 -1 -71
73 -71 81 0 3 10 -1 22 -7 16 -9 23 -9 26 0 2 6 8 11 14 11 6 0 7 -7 4 -16 -5
-14 21 -72 34 -75 21 -4 86 -6 92 -2 11 6 -52 88 -88 112 -36 25 -59 27 -50 5
5 -12 2 -15 -10 -10 -8 3 -23 6 -31 6 -14 0 -13 3 3 21 18 20 18 21 -6 40 -33
25 -47 24 -73 -6 -16 -18 -26 -22 -37 -15 -12 8 -10 14 14 39 27 28 28 31 10
37 -45 15 -74 29 -74 36 0 14 -44 48 -61 48 -10 0 -25 -10 -33 -21 -14 -20
-18 -21 -66 -9 -30 7 -55 9 -60 4 -11 -11 -2 -54 11 -54 5 0 9 -9 9 -20 0 -13
-7 -20 -20 -20 -16 0 -20 -7 -20 -35 0 -19 -4 -35 -10 -35 -16 0 -11 -23 10
-50 24 -30 25 -61 5 -100 -13 -26 -21 -30 -54 -30 -49 0 -71 -8 -71 -26 0 -20
-18 -17 -30 6 -16 30 -78 56 -101 42 -25 -16 -26 -16 -38 18 -5 17 -23 38 -40
47 -24 15 -31 27 -41 78 -14 68 -29 102 -59 129 -23 21 -24 25 -13 43 6 10 23
10 79 -1 39 -7 76 -11 81 -7 6 3 -12 36 -40 75 -28 37 -44 66 -37 62 8 -3 21
-9 29 -12 8 -3 31 -28 50 -56 44 -63 110 -93 110 -50 0 38 -68 142 -93 142 -5
0 -29 18 -53 39 -32 28 -56 40 -84 43 -50 4 -60 1 -60 -23 0 -11 -7 -19 -16
-19 -13 0 -13 4 3 26 20 26 20 27 -6 52 -28 28 -13 46 17 19 21 -19 98 -26 95
-9 -2 6 11 19 27 27 31 16 37 29 20 40 -18 11 -11 31 15 43 28 13 32 34 10 52
-23 19 -18 30 15 30 35 0 37 4 10 33 -23 24 -9 37 16 16 9 -7 30 -14 48 -15
17 -2 41 -5 53 -9 16 -5 23 -2 28 15 6 17 12 20 36 15 46 -10 36 17 -17 51
-30 19 -40 30 -30 32 9 2 14 8 11 13 -8 11 6 12 23 0z m-2778 -45 c0 -8 6 -17
13 -19 6 -3 2 -6 -10 -6 -17 -1 -23 5 -23 19 0 11 5 20 10 20 6 0 10 -6 10
-14z m63 -6 c6 -24 1 -25 -19 -6 -18 18 -18 26 0 26 7 0 16 -9 19 -20z m2917
-36 c0 -2 -13 2 -29 10 -16 9 -32 12 -36 8 -5 -4 -5 -1 -1 5 6 10 14 10 37 -2
16 -9 29 -18 29 -21z m-405 6 c3 -6 -1 -7 -9 -4 -18 7 -21 14 -7 14 6 0 13 -4
16 -10z m-406 -22 c2 -7 21 -30 43 -52 36 -37 52 -60 25 -38 -9 8 -20 8 -38
-1 -46 -25 -58 -26 -74 -11 -9 10 -13 24 -9 40 6 22 3 24 -25 24 -21 0 -31 5
-31 15 0 9 9 15 21 15 15 0 19 4 15 16 -5 14 -1 16 31 11 21 -4 40 -12 42 -19z
m-2129 -12 c0 -18 -15 -36 -31 -36 -21 0 -22 1 -13 24 5 14 44 24 44 12z
m1566 -18 l19 -21 -30 18 c-41 26 -40 25 -23 25 8 0 23 -10 34 -22z m654 -20
c0 -16 -3 -19 -11 -11 -6 6 -8 16 -5 22 11 17 16 13 16 -11z m-2560 -28 c0 -5
-9 -10 -20 -10 -11 0 -20 5 -20 10 0 6 9 10 20 10 11 0 20 -4 20 -10z m300 4
c0 -3 -6 -12 -14 -20 -17 -16 -66 -19 -66 -4 0 6 14 10 30 10 17 0 30 5 30 10
0 6 5 10 10 10 6 0 10 -3 10 -6z m120 -44 c0 -5 -7 -10 -15 -10 -8 0 -15 -4
-15 -10 0 -5 -9 -10 -21 -10 -11 0 -17 -4 -14 -10 4 -6 -7 -10 -27 -10 -30 1
-31 2 -15 14 9 7 17 21 17 30 0 12 10 16 45 16 25 0 45 -4 45 -10z m-220 -20
c0 -5 -18 -10 -40 -10 -22 0 -40 -4 -40 -10 0 -5 -9 -10 -20 -10 -11 0 -20 5
-20 10 0 6 9 10 20 10 11 0 20 5 20 10 0 6 18 10 40 10 22 0 40 -4 40 -10z
m2420 -4 c0 -16 -24 -39 -32 -30 -3 3 -4 14 -1 25 6 22 33 26 33 5z m-190 -17
c0 -5 -8 -9 -17 -8 -11 0 -13 3 -5 6 6 2 9 10 6 15 -4 7 -2 8 4 4 7 -4 12 -11
12 -17z m-2375 1 c-3 -5 -14 -10 -23 -9 -14 0 -13 2 3 9 27 11 27 11 20 0z
m-65 -20 c13 -8 13 -10 -2 -10 -9 0 -20 5 -23 10 -8 13 5 13 25 0z m290 0 c0
-12 -37 -12 -65 0 -15 7 -10 9 23 9 23 1 42 -3 42 -9z m-215 -10 c-4 -6 -11
-8 -16 -5 -5 4 -9 1 -9 -4 0 -6 10 -11 23 -11 20 -1 21 -1 3 -11 -12 -8 -25
-8 -40 -1 -11 6 -15 11 -8 11 6 1 12 8 12 16 0 8 9 15 21 15 11 0 17 -5 14
-10z m-745 -44 c0 -3 -4 -8 -10 -11 -5 -3 -10 -1 -10 4 0 6 5 11 10 11 6 0 10
-2 10 -4z m780 -8 c-1 -15 -24 -48 -34 -48 -3 0 -6 14 -6 30 0 23 4 30 20 30
11 0 20 -6 20 -12z m3471 -51 c-10 -9 -11 -8 -5 6 3 10 9 15 12 12 3 -3 0 -11
-7 -18z m32 -2 c-3 -8 -10 -15 -15 -15 -7 0 -6 5 1 13 6 8 7 18 3 22 -4 5 -2
5 5 1 7 -4 10 -13 6 -21z m-4380 -31 c-15 -24 -62 -36 -47 -12 16 25 40 44 51
40 9 -3 8 -10 -4 -28z m743 22 c18 -19 18 -26 -2 -26 -9 0 -29 -14 -46 -32
-23 -25 -31 -29 -38 -18 -5 8 -13 11 -17 6 -4 -5 -2 -11 5 -13 21 -8 13 -23
-13 -23 -14 0 -25 5 -25 10 0 6 -7 10 -15 10 -8 0 -15 5 -15 10 0 6 7 10 15
10 8 0 15 6 16 13 1 6 5 1 9 -13 7 -22 8 -23 9 -4 1 29 34 64 60 64 12 0 19 4
16 10 -10 15 25 12 41 -4z m-946 -16 c0 -5 -5 -10 -11 -10 -5 0 -7 5 -4 10 3
6 8 10 11 10 2 0 4 -4 4 -10z m251 -12 c6 -13 8 -20 4 -16 -4 4 -16 3 -27 -3
-28 -15 -35 -3 -13 21 22 25 22 25 36 -2z m687 -55 c-2 -9 -9 -18 -17 -21 -8
-3 -11 0 -7 7 4 6 2 11 -3 11 -6 0 -11 5 -11 10 0 6 9 10 21 10 14 0 19 -5 17
-17z m-561 -38 c0 -8 -2 -13 -4 -11 -2 2 -15 -7 -29 -21 -19 -19 -28 -22 -38
-14 -10 8 -17 7 -26 -4 -17 -21 -30 -19 -30 4 0 11 -4 23 -10 26 -28 17 -5 27
54 24 36 -2 68 0 72 4 10 10 11 9 11 -8z m263 -1 c0 -18 -23 -44 -39 -44 -16
0 -13 20 4 26 8 4 15 12 15 20 0 8 5 14 10 14 6 0 10 -7 10 -16z m170 12 c0
-2 3 -11 6 -20 5 -13 -2 -16 -36 -16 -39 0 -77 20 -63 34 7 7 93 9 93 2z m93
-2 c13 -14 -7 -34 -34 -34 -32 0 -35 4 -16 25 12 15 39 20 50 9z m3852 -12
c-3 -3 -11 0 -18 7 -9 10 -8 11 6 5 10 -3 15 -9 12 -12z m-4355 -32 c0 -5 -4
-10 -10 -10 -5 0 -10 5 -10 10 0 6 5 10 10 10 6 0 10 -4 10 -10z m427 -6 c-3
-3 -12 -4 -19 -1 -8 3 -5 6 6 6 11 1 17 -2 13 -5z m-111 -19 c-8 -7 -13 -15
-9 -18 3 -4 -3 -7 -14 -7 -12 0 -23 8 -26 20 -4 17 0 19 30 18 30 -1 33 -3 19
-13z m-246 -2 c0 -10 -20 -40 -20 -31 0 3 -3 13 -6 22 -4 11 -1 16 10 16 9 0
16 -3 16 -7z m172 -83 c-4 -38 -6 -40 -39 -40 -19 0 -41 -7 -50 -16 -14 -14
-17 -13 -35 6 -24 25 -16 40 7 16 17 -16 40 -13 30 5 -4 5 3 9 15 9 25 0 50
22 50 44 0 9 6 16 13 16 9 0 11 -12 9 -40z m-398 -28 c-21 -5 -28 4 -20 24 6
16 8 15 21 -2 12 -16 12 -19 -1 -22z m432 -9 c-10 -10 -19 5 -10 18 6 11 8 11
12 0 2 -7 1 -15 -2 -18z m-211 -17 c12 -12 12 -15 0 -20 -8 -3 -15 -4 -15 -2
0 3 -3 11 -6 20 -8 20 3 21 21 2z m4455 -36 c0 -5 -2 -10 -4 -10 -3 0 -8 5
-11 10 -3 6 -1 10 4 10 6 0 11 -4 11 -10z m-4450 -37 c0 -5 -5 -15 -11 -23 -8
-11 -12 -12 -16 -2 -2 6 -11 12 -19 12 -8 0 -14 5 -14 10 0 6 14 10 30 10 17
0 30 -3 30 -7z m-63 -29 c-3 -3 -12 -4 -19 -1 -8 3 -5 6 6 6 11 1 17 -2 13 -5z
m4488 -4 c3 -6 -1 -7 -9 -4 -18 7 -21 14 -7 14 6 0 13 -4 16 -10z m-140 -10
c3 -5 2 -10 -4 -10 -5 0 -13 5 -16 10 -3 6 -2 10 4 10 5 0 13 -4 16 -10z m192
-12 c-3 -8 -6 -5 -6 6 -1 11 2 17 5 13 3 -3 4 -12 1 -19z m48 -48 c3 -5 2 -10
-4 -10 -5 0 -13 5 -16 10 -3 6 -2 10 4 10 5 0 13 -4 16 -10z m-389 -50 c8 0
14 -8 14 -17 1 -43 80 -90 80 -48 0 8 5 15 10 15 6 0 13 -7 16 -15 4 -10 20
-15 50 -15 24 0 44 -4 44 -10 0 -6 -26 -10 -59 -10 l-59 0 -4 -36 c-3 -30 1
-39 25 -60 16 -13 32 -24 37 -24 20 0 21 24 1 50 -14 20 -17 31 -10 36 12 7
37 -20 65 -73 10 -17 36 -42 58 -54 23 -13 49 -30 59 -39 10 -10 35 -23 56
-30 21 -7 50 -25 65 -41 15 -16 32 -29 37 -29 10 0 1 48 -12 65 -10 14 6 39
19 31 6 -4 9 -13 5 -21 -3 -8 0 -15 6 -15 14 0 15 27 1 35 -13 8 -2 27 13 22
5 -1 12 -14 14 -27 4 -27 10 -36 19 -27 9 9 -31 85 -75 144 -24 31 -36 55 -30
59 13 8 33 -14 91 -101 33 -50 43 -71 33 -73 -12 -3 -12 -7 -2 -24 9 -16 9
-22 0 -25 -23 -8 -15 -35 7 -28 16 5 20 2 20 -14 0 -12 5 -21 10 -21 6 0 10
-9 10 -20 0 -11 -4 -20 -10 -20 -5 0 -10 9 -10 20 0 24 -15 27 -24 4 -9 -24
-7 -41 4 -24 8 12 10 12 16 -4 4 -10 7 -37 8 -59 1 -40 3 -42 29 -39 27 3 27
3 27 -55 0 -47 4 -61 20 -73 27 -20 25 -33 -4 -28 -31 6 -41 -14 -15 -33 20
-14 26 -45 10 -51 -11 -4 6 -132 19 -136 6 -2 10 -47 10 -103 0 -91 -2 -99
-19 -99 -11 0 -22 8 -24 18 -2 9 -2 1 0 -18 3 -19 13 -42 24 -51 10 -9 19 -24
19 -33 0 -9 4 -16 9 -16 4 0 9 -25 9 -55 0 -31 -4 -53 -9 -49 -5 3 -9 -21 -9
-55 0 -54 2 -61 20 -61 21 0 27 -14 11 -25 -5 -3 -17 2 -25 11 -13 13 -20 14
-31 4 -13 -11 -15 -6 -15 29 0 39 -1 41 -20 31 -18 -10 -20 -8 -20 30 0 25 -4
39 -10 35 -5 -3 -10 -30 -10 -59 0 -38 -5 -58 -20 -74 -15 -16 -20 -35 -20
-79 0 -32 -5 -65 -10 -73 -7 -11 -10 4 -10 49 l0 64 -20 -23 c-11 -13 -20 -37
-20 -54 0 -17 -3 -48 -7 -69 -5 -34 -9 -38 -29 -34 -21 4 -24 0 -24 -24 0 -43
-20 -35 -21 9 -1 20 -5 51 -9 67 -5 21 -8 4 -9 -57 l-1 -88 -27 0 c-24 0 -31
7 -46 45 -11 25 -22 45 -27 45 -4 0 -13 -13 -20 -30 -11 -27 -14 -29 -33 -15
-15 11 -24 12 -34 3 -20 -16 -16 -38 7 -38 11 0 20 -4 20 -10 0 -5 -4 -10 -10
-10 -5 0 -10 -8 -10 -18 0 -10 -9 -24 -20 -32 -11 -8 -20 -20 -20 -27 0 -7 -9
-17 -20 -23 -21 -11 -28 -40 -10 -40 6 0 10 -4 10 -10 0 -5 -16 -10 -35 -10
-19 0 -35 5 -35 10 0 6 3 10 8 10 4 0 5 22 4 50 -3 41 -7 50 -23 50 -16 0 -19
-8 -19 -55 0 -46 -4 -60 -25 -80 -13 -14 -31 -25 -40 -25 -8 0 -15 -4 -15 -10
0 -5 -9 -10 -21 -10 -16 0 -19 4 -14 20 6 17 2 20 -29 20 -20 0 -36 -4 -36
-10 0 -5 -4 -10 -10 -10 -5 0 -10 9 -10 20 0 17 7 20 45 20 25 0 45 5 45 10 0
6 -20 10 -45 10 -25 0 -45 -4 -45 -10 0 -5 -9 -10 -20 -10 -11 0 -20 -4 -20
-10 0 -5 -7 -10 -15 -10 -8 0 -15 9 -15 20 0 15 -7 20 -25 20 -31 0 -31 -5 0
-35 24 -25 55 -33 55 -15 0 20 18 9 22 -14 4 -17 1 -23 -9 -19 -7 3 -13 0 -13
-6 0 -6 15 -12 33 -12 84 -4 104 -7 124 -18 12 -6 30 -11 41 -11 29 0 32 -17
32 -161 0 -108 2 -129 15 -129 18 0 17 -3 14 130 -1 58 -3 121 -3 142 -1 20
-4 34 -8 31 -5 -2 -8 1 -8 6 0 6 -11 11 -25 11 -14 0 -25 4 -25 9 0 5 15 8 34
8 19 -1 33 -4 30 -8 -2 -4 1 -9 7 -11 7 -2 13 -59 15 -163 3 -87 7 -162 11
-165 3 -3 3 68 0 156 -4 117 -2 165 6 174 9 10 9 11 -2 5 -10 -5 -12 -4 -7 4
4 6 11 9 16 6 10 -6 70 21 70 31 0 3 -10 4 -22 2 -11 -2 -23 2 -25 9 -3 8 6 9
33 3 26 -6 43 -5 58 5 12 7 37 17 58 20 31 6 38 4 51 -17 9 -12 19 -36 23 -53
4 -16 13 -42 21 -57 12 -24 20 -28 57 -28 27 0 48 6 56 16 12 13 17 9 42 -30
18 -30 28 -59 27 -83 0 -50 -22 -150 -35 -163 -8 -8 -826 -14 -1380 -10 -17 0
-20 5 -17 28 2 15 -1 117 -5 227 l-9 200 -1 -223 c0 -123 -2 -225 -4 -228 -9
-8 -1678 -14 -1912 -7 l-239 8 29 30 c16 17 38 35 49 41 19 11 19 12 -8 52
-15 23 -30 42 -33 42 -3 0 -2 -5 2 -12 4 -7 3 -8 -5 -4 -6 4 -9 11 -6 16 9 14
-34 102 -46 94 -6 -3 -7 -9 -3 -13 5 -3 15 -16 22 -29 16 -29 -7 -27 -25 3
-24 39 -27 49 -14 53 9 3 6 11 -10 28 -12 13 -26 21 -30 18 -5 -3 -9 -1 -9 5
0 6 -9 15 -21 21 -18 10 -19 9 -11 -7 9 -16 7 -19 -14 -21 -13 -1 -24 2 -24 7
0 5 -11 22 -24 38 l-25 29 10 380 c5 208 10 385 12 392 2 11 108 13 557 12
305 0 558 -4 561 -8 4 -4 11 -128 17 -277 8 -255 8 -271 -10 -291 -10 -11 -18
-28 -18 -38 0 -9 -7 -31 -16 -47 -14 -28 -14 -32 2 -50 9 -10 25 -19 36 -19
17 0 18 -13 18 -215 0 -118 3 -216 8 -216 43 -8 52 -5 52 14 0 19 1 19 19 3
16 -15 40 -17 172 -15 l153 2 -39 19 c-33 18 -50 19 -131 13 l-92 -7 -41 37
-41 37 0 133 0 133 26 9 c22 7 26 15 29 53 1 25 5 53 10 63 5 12 3 17 -10 17
-9 0 -13 5 -10 10 6 9 -7 14 -27 11 -4 0 -10 11 -14 27 -3 15 -7 32 -9 37 -2
6 -4 -120 -4 -280 -1 -159 -5 -284 -9 -277 -5 7 -9 101 -10 210 -2 212 -9 425
-22 727 -4 105 -7 190 -7 191 15 5 208 -13 200 -19 -7 -5 -13 -15 -13 -23 0
-9 5 -12 13 -8 9 5 9 4 -1 -7 -10 -11 -5 -20 25 -51 32 -33 37 -45 37 -81 0
-23 -4 -52 -8 -64 -7 -20 -5 -23 17 -23 28 0 112 90 122 132 8 31 -17 57 -39
39 -19 -16 -67 47 -59 78 l5 21 382 -2 381 -3 7 -50 c6 -40 4 -53 -10 -68 -13
-15 -16 -35 -15 -93 2 -40 -1 -84 -6 -96 -6 -18 2 -44 36 -113 41 -84 44 -98
53 -205 5 -63 12 -208 16 -322 5 -165 10 -208 20 -208 17 0 18 76 4 350 -13
251 -35 493 -60 671 -11 79 -19 143 -17 144 1 1 19 0 39 -2 l37 -5 -16 -25
c-16 -24 -17 -24 -25 -7 -6 15 -7 13 -3 -6 9 -45 45 -393 46 -455 1 -33 4 -48
6 -32 6 37 16 34 53 -13 38 -48 78 -71 109 -63 28 7 24 39 -5 35 -12 -1 -26 3
-32 11 -9 11 -3 18 32 35 24 12 50 22 58 22 18 0 98 -92 138 -160 31 -52 29
-69 -6 -70 -6 0 -30 -24 -53 -52 l-43 -53 6 -99 6 -98 -30 -34 c-16 -19 -30
-39 -30 -44 0 -18 37 -11 89 16 39 20 62 43 102 101 47 68 51 79 53 136 3 81
9 91 44 73 15 -8 40 -27 55 -43 l28 -30 -42 -62 c-41 -61 -73 -91 -198 -180
-33 -24 -61 -48 -61 -53 0 -5 60 -8 134 -7 l134 1 5 34 c6 34 30 68 120 171
45 51 56 82 27 75 -7 -2 -30 9 -52 24 -40 28 -46 43 -9 25 12 -6 30 -15 41
-21 12 -6 21 -6 25 0 3 6 2 10 -4 10 -5 0 -13 9 -16 20 -4 13 -15 20 -32 20
-14 0 -34 10 -44 22 -11 11 -22 18 -26 14 -4 -4 -1 -11 7 -16 8 -5 11 -12 7
-17 -5 -4 -11 -3 -15 3 -4 6 -15 13 -24 17 -10 3 -15 12 -12 20 3 8 -2 14 -10
14 -8 0 -12 -5 -9 -11 8 -12 -40 22 -79 57 -16 13 -28 27 -28 31 0 13 33 5 49
-12 9 -9 23 -23 32 -29 13 -11 15 -8 15 17 0 22 -4 30 -18 30 -10 0 -18 5 -18
11 0 6 -10 10 -22 9 -44 -4 -55 0 -65 23 -16 33 -133 157 -149 157 -8 0 -17
14 -21 30 -4 23 -11 30 -28 30 -32 0 -53 29 -64 86 -6 27 -16 63 -24 79 -22
45 -30 75 -18 75 14 0 41 100 41 153 0 30 -9 60 -25 88 -14 24 -25 60 -25 80
0 25 -7 43 -25 59 -23 21 -25 29 -19 70 3 25 15 54 25 66 11 11 19 32 19 47 0
16 8 30 19 37 14 7 19 20 19 52 0 42 41 134 66 150 45 27 109 112 109 143 0
12 -10 52 -23 89 -21 64 -21 68 -4 94 10 14 26 34 36 42 16 13 18 20 9 43 -8
20 -8 33 2 47 13 21 20 23 80 20 33 -1 37 1 35 21 -4 31 20 36 28 5 6 -23 11
-26 54 -26 27 0 51 4 54 9 13 20 103 54 140 52 22 -1 52 3 68 10 15 6 36 8 45
4 33 -14 51 -12 45 3 -4 12 -1 14 12 9 10 -4 24 -7 32 -7z m-1979 -32 c-3 -8
-6 -5 -6 6 -1 11 2 17 5 13 3 -3 4 -12 1 -19z m-2387 -58 c0 -5 -5 -10 -11
-10 -5 0 -7 5 -4 10 3 6 8 10 11 10 2 0 4 -4 4 -10z m320 -58 c1 -16 1 -16 11
1 9 16 41 17 439 17 l430 0 0 -22 c0 -13 -9 -111 -20 -218 -10 -107 -26 -296
-34 -420 -9 -124 -18 -255 -21 -292 -3 -41 -1 -68 4 -68 14 0 19 42 31 255 10
179 25 366 50 620 16 159 17 164 40 150 11 -7 80 -10 295 -15 72 -1 123 -4
114 -7 -10 -2 -20 -19 -23 -38 -4 -18 -12 -36 -19 -38 -7 -3 -6 -6 4 -6 11 -1
19 10 22 28 9 42 53 49 142 22 37 -12 70 -19 73 -17 11 12 33 -25 27 -45 -10
-32 3 -87 27 -109 20 -18 22 -19 33 -2 7 9 15 35 19 57 3 22 9 55 12 73 6 33
-8 62 -30 62 -6 0 -3 -5 7 -11 9 -5 17 -20 16 -32 0 -12 -3 -16 -6 -9 -2 6
-17 12 -33 12 -15 0 -30 7 -34 15 -3 8 -20 21 -38 28 -33 14 -32 14 54 22 47
4 92 3 100 -1 7 -5 21 -7 30 -6 10 2 37 -6 62 -16 l44 -20 6 24 c10 37 23 29
30 -18 12 -84 45 -468 61 -708 17 -258 20 -279 35 -264 13 13 -49 829 -75 980
-2 11 0 25 3 30 4 5 80 8 170 6 129 -3 164 -6 169 -17 3 -8 -2 -22 -11 -31 -9
-9 -26 -35 -38 -58 -11 -22 -29 -53 -39 -68 -20 -27 -25 -59 -11 -72 4 -4 7
-31 8 -59 1 -76 59 -173 123 -205 14 -7 33 -27 41 -45 8 -18 49 -59 91 -92 42
-33 82 -70 90 -82 9 -18 21 -23 51 -23 21 0 55 -7 75 -15 24 -10 40 -12 48 -5
8 7 20 1 40 -20 16 -17 37 -30 47 -30 42 0 109 -24 119 -41 5 -11 10 -34 11
-52 0 -17 2 -47 5 -65 l4 -33 85 2 c46 1 84 4 84 8 0 40 -87 463 -120 586 -12
44 -35 131 -51 193 -16 62 -36 129 -44 149 -18 43 -20 86 -3 81 11 -4 81 -201
91 -257 2 -14 20 -87 40 -161 34 -132 89 -394 91 -437 1 -11 14 -31 29 -43 16
-12 42 -47 59 -76 20 -36 36 -54 49 -54 10 0 19 -4 19 -10 0 -10 -25 -13 -80
-12 -14 0 -592 1 -1285 1 -693 1 -1399 6 -1570 12 -287 9 -312 12 -338 30 -16
12 -31 18 -34 15 -4 -3 -1 -6 5 -6 7 0 12 -4 12 -10 0 -5 -13 -10 -30 -10 -19
0 -30 5 -30 14 0 8 -5 18 -12 22 -7 5 -9 2 -5 -9 4 -12 1 -15 -17 -11 -14 2
-30 -4 -41 -16 -10 -11 -25 -20 -34 -19 -9 0 -11 3 -4 5 7 3 9 12 6 20 -3 7
-9 11 -14 8 -5 -3 -9 0 -9 6 0 6 -4 9 -9 6 -5 -3 -7 -14 -5 -24 5 -16 -18 -17
-392 -14 l-397 2 6 40 c3 21 17 54 31 73 32 42 32 43 1 51 -15 4 -25 13 -23
21 2 8 -5 20 -14 27 -16 12 -13 26 42 191 33 97 72 203 85 233 30 67 31 77 6
45 -15 -19 -21 -22 -37 -13 -10 6 -13 12 -6 12 7 0 17 11 22 25 10 26 40 35
40 13 0 -8 3 -9 8 -3 10 14 92 16 92 2 0 -16 31 -47 48 -47 9 0 24 7 34 17 17
15 18 13 18 -71 0 -73 4 -95 25 -136 28 -54 57 -77 72 -57 6 6 17 30 25 52 12
33 13 47 2 80 -7 22 -13 31 -13 21 -1 -11 -4 -17 -7 -14 -10 10 17 132 41 184
18 41 36 60 81 91 33 22 77 46 99 53 55 18 130 69 150 103 16 26 19 27 107 27
89 0 90 0 85 -22 -2 -13 -25 -93 -50 -178 -54 -185 -107 -413 -139 -591 -21
-120 -25 -129 -45 -129 -28 0 -29 -10 -3 -33 18 -15 21 -15 25 -2 3 8 7 22 10
31 3 8 8 13 12 11 5 -3 9 12 9 32 3 67 90 479 135 636 59 209 77 258 90 249 5
-3 9 -13 9 -22z m1433 1 c-13 -2 -33 -2 -45 0 -13 2 -3 4 22 4 25 0 35 -2 23
-4z m-1793 -23 c0 -5 -9 -10 -20 -10 -11 0 -20 5 -20 10 0 6 9 10 20 10 11 0
20 -4 20 -10z m1890 -4 c0 -9 -7 -12 -20 -9 -11 3 -17 9 -14 14 8 14 34 10 34
-5z m3154 -22 c8 -22 9 -21 -26 -38 -25 -13 -33 -14 -40 -4 -12 20 -10 26 20
41 36 20 39 20 46 1z m-5134 -14 c0 -5 -7 -10 -15 -10 -8 0 -15 5 -15 10 0 6
7 10 15 10 8 0 15 -4 15 -10z m2037 -42 c-3 -7 -5 -2 -5 12 0 14 2 19 5 13 2
-7 2 -19 0 -25z m2929 -14 c-7 -37 -10 -37 -30 -4 l-17 30 26 0 c22 0 25 -3
21 -26z m230 -33 c17 -22 10 -28 -30 -25 -20 2 -36 -1 -36 -6 0 -6 -4 -10 -9
-10 -11 0 -9 32 4 46 15 17 58 14 71 -5z m-6511 -31 c3 -5 1 -10 -4 -10 -6 0
-11 5 -11 10 0 6 2 10 4 10 3 0 8 -4 11 -10z m-94 -92 c-125 -229 -226 -446
-271 -580 -13 -38 -27 -68 -31 -68 -20 0 -4 54 47 166 12 27 32 75 44 105 34
85 152 317 201 394 14 22 29 49 33 60 5 12 10 15 13 8 2 -6 -14 -45 -36 -85z
m65 67 c-3 -8 -1 -15 4 -15 14 0 12 -28 -5 -77 -26 -75 -34 -308 -14 -386 12
-45 2 -125 -18 -148 -7 -9 -18 -45 -24 -80 -6 -35 -15 -69 -21 -76 -8 -9 -48
-13 -148 -13 -75 0 -139 3 -143 6 -3 3 -2 16 3 27 5 12 30 76 55 142 56 142
175 395 186 395 16 0 22 -93 9 -146 -12 -48 -11 -59 3 -87 l16 -32 0 56 c1 31
8 78 16 105 8 27 15 66 15 86 0 44 35 203 52 236 13 25 23 30 14 7z m3974 -81
c0 -16 -16 -19 -25 -4 -8 13 4 32 16 25 5 -4 9 -13 9 -21z m-3156 -8 c-6 -16
-24 -23 -24 -8 0 10 22 33 27 28 2 -2 1 -11 -3 -20z m-104 -58 c24 -18 34 -20
54 -10 l24 11 -35 -97 c-20 -53 -53 -153 -75 -222 -39 -127 -54 -150 -95 -150
-18 0 -28 -10 -43 -42 -11 -24 -24 -51 -30 -60 -5 -10 -14 -26 -19 -35 -4 -10
-19 -18 -32 -19 -13 0 -34 -6 -47 -13 -35 -19 -76 -10 -80 17 -3 16 -10 22
-29 22 -25 0 -25 1 -21 60 2 33 1 60 -4 60 -4 0 -8 8 -8 17 0 13 3 14 12 5 19
-19 34 -14 46 13 14 30 17 58 4 38 -13 -21 -44 12 -40 44 3 28 15 33 51 18 10
-4 17 -3 17 3 0 6 14 33 31 61 31 49 32 71 3 71 -17 0 -33 37 -27 61 4 15 10
16 31 8 23 -9 29 -5 66 36 57 65 143 123 184 124 19 1 45 -8 62 -21z m460 -19
c0 -10 -5 -19 -12 -19 -6 0 -8 3 -5 6 3 4 2 15 -4 25 -7 15 -6 17 6 13 8 -4
15 -15 15 -25z m-1260 2 c0 -11 -4 -23 -10 -26 -6 -4 -10 5 -10 19 0 14 5 26
10 26 6 0 10 -9 10 -19z m917 -8 c-3 -10 -17 -49 -32 -88 -45 -119 -95 -269
-95 -286 0 -9 -7 -22 -15 -29 -23 -19 -20 4 20 132 20 62 37 120 39 128 2 8
14 42 26 75 12 33 23 66 25 73 3 6 12 12 21 12 11 0 15 -6 11 -17z m291 -148
c-3 -3 -9 2 -12 12 -6 14 -5 15 5 6 7 -7 10 -15 7 -18z m3676 -346 c16 -82 -8
-101 -62 -50 l-30 29 16 36 c14 29 22 36 42 34 21 -3 26 -10 34 -49z m-5174
-76 c0 -22 -17 -50 -25 -42 -5 6 14 59 22 59 1 0 3 -8 3 -17z m348 -34 c-2 -6
-8 -10 -13 -10 -5 0 -11 4 -13 10 -2 6 4 11 13 11 9 0 15 -5 13 -11z m1111
-67 l423 -2 -5 -28 c-3 -15 -13 -97 -23 -182 -9 -85 -22 -160 -28 -167 -21
-22 -102 -61 -141 -68 -50 -9 -115 -67 -108 -96 7 -24 -33 -70 -56 -66 -24 4
-42 17 -36 26 2 5 -14 14 -38 20 -36 10 -50 9 -102 -8 -33 -11 -69 -21 -81
-21 -25 0 -65 41 -93 98 -23 45 -19 53 11 25 17 -15 18 -15 18 8 1 13 7 42 15
64 9 24 11 41 5 43 -6 2 -10 18 -10 34 0 17 3 28 7 24 9 -9 42 71 42 104 1 17
-2 21 -8 12 -6 -11 -11 -10 -25 3 -22 22 -21 46 2 38 16 -5 16 -5 -1 13 -16
17 -30 19 -117 16 -55 -2 -100 0 -100 3 0 3 11 22 25 42 24 37 25 53 1 53 -8
0 -20 8 -27 17 -13 15 -12 16 6 7 11 -5 207 -10 444 -12z m465 -24 c-4 -14 -2
-18 5 -14 6 4 11 14 11 22 0 12 73 14 516 14 l517 0 -7 -77 c-3 -43 -8 -177
-11 -298 -3 -121 -8 -266 -11 -322 -5 -94 -4 -103 12 -103 14 0 15 -3 6 -12
-19 -19 -14 -28 18 -28 23 0 30 -4 30 -20 0 -16 -7 -20 -30 -20 -23 0 -30 5
-30 19 0 10 -7 22 -16 25 -9 4 -14 13 -10 21 3 8 1 15 -4 15 -6 0 -10 -4 -10
-10 0 -5 -8 -10 -17 -10 -15 0 -16 2 -3 10 11 7 4 10 -25 10 -29 0 -36 -3 -25
-10 11 -7 7 -10 -17 -10 -21 0 -32 5 -30 13 1 8 -9 11 -33 9 -32 -2 -33 -1
-17 12 15 12 16 14 2 20 -8 3 -23 21 -32 40 -9 19 -20 33 -25 30 -4 -3 -5 2
-2 11 4 10 -8 29 -36 56 -38 36 -47 40 -79 36 -31 -5 -42 -1 -81 33 -35 31
-46 36 -53 25 -4 -8 -14 -12 -22 -8 -9 3 -22 0 -30 -7 -9 -7 -15 -8 -15 -2 0
5 17 17 38 25 48 19 71 44 49 53 -26 10 -72 0 -69 -15 2 -10 -5 -12 -30 -8
-18 3 -27 3 -20 0 6 -2 12 -8 12 -13 0 -14 -97 -5 -116 11 -11 9 -41 14 -88
14 -68 0 -71 1 -75 25 -4 29 -17 40 -48 40 -18 0 -23 6 -23 24 0 25 -30 43
-50 31 -15 -9 -8 -67 10 -83 13 -11 13 -12 0 -6 -8 4 -27 7 -42 6 -29 -2 -35
11 -19 37 11 17 -8 41 -27 33 -11 -4 -12 5 -8 39 3 24 13 107 21 184 18 158
21 169 35 160 6 -4 8 -16 4 -27z m-1954 12 c0 -5 -4 -10 -9 -10 -5 0 -11 -15
-14 -32 -2 -18 -25 -114 -50 -213 -63 -250 -91 -438 -103 -702 -4 -84 -11
-153 -15 -153 -8 0 -7 39 7 255 11 186 55 456 108 673 24 96 28 111 48 165 10
26 28 37 28 17z m306 -7 c-79 -266 -141 -661 -153 -974 l-6 -169 -160 0 -160
0 6 153 c13 309 61 600 149 900 l31 107 149 0 c138 0 149 -1 144 -17z m44 -8
c-18 -47 -61 -237 -56 -243 3 -3 6 -1 7 4 0 5 15 65 32 134 l32 125 38 3 c35
3 45 -3 105 -56 43 -38 88 -67 125 -80 69 -26 81 -27 102 -6 20 21 21 20 37
-45 l14 -54 68 -23 c37 -12 69 -24 71 -26 1 -2 -3 -41 -11 -88 -25 -153 -44
-357 -54 -568 -5 -114 -10 -208 -10 -209 0 -2 -147 -3 -326 -3 l-327 0 7 138
c6 119 13 196 43 472 3 30 3 53 0 50 -11 -10 -47 -339 -54 -488 -3 -84 -10
-152 -14 -152 -4 0 -6 15 -4 33 2 17 7 102 9 187 6 163 22 309 55 500 26 149
59 308 70 340 5 14 12 37 15 53 4 15 13 27 21 27 11 0 12 -5 5 -25z m6660
-275 c0 -5 -2 -10 -4 -10 -3 0 -8 5 -11 10 -3 6 -1 10 4 10 6 0 11 -4 11 -10z
m-6056 -110 c-7 -47 -13 -101 -12 -120 0 -19 8 18 17 82 9 64 21 121 25 125 5
4 13 -1 20 -11 6 -11 23 -34 39 -51 20 -25 28 -46 30 -84 4 -60 32 -96 82
-105 18 -4 35 -13 38 -20 7 -19 121 -96 156 -106 25 -7 27 -5 29 22 2 29 35
67 58 68 13 0 24 -22 24 -49 0 -10 9 -30 20 -44 18 -22 20 -40 20 -161 l0
-135 -43 -36 c-24 -20 -54 -56 -67 -80 l-25 -45 -229 0 -229 0 6 163 c4 89 9
205 11 257 3 62 0 43 -9 -55 -7 -82 -14 -199 -14 -259 -1 -60 -4 -106 -8 -103
-9 10 -4 320 8 452 12 140 38 354 45 379 3 10 9 14 14 10 4 -5 2 -47 -6 -94z
m5972 83 c16 -21 19 -93 4 -93 -5 0 -10 18 -10 40 0 22 -4 40 -10 40 -5 0 -10
7 -10 15 0 20 10 19 26 -2z m79 -23 c3 -5 -1 -10 -9 -10 -9 0 -16 5 -16 10 0
6 4 10 9 10 6 0 13 -4 16 -10z m-5008 -35 c0 -8 -4 -15 -9 -15 -4 0 -8 7 -8
15 0 8 4 15 8 15 5 0 9 -7 9 -15z m-117 -5 c0 -5 -5 -10 -11 -10 -5 0 -7 -4
-4 -10 3 -5 -1 -10 -9 -10 -19 0 -21 11 -4 28 15 15 28 16 28 2z m210 -80 c0
-5 -2 -10 -4 -10 -3 0 -8 5 -11 10 -3 6 -1 10 4 10 6 0 11 -4 11 -10z m-197
-101 c-5 -5 -22 5 -39 23 -16 18 -20 25 -8 15 29 -24 30 -23 40 26 l8 42 4
-49 c2 -27 -1 -53 -5 -57z m42 69 c-3 -13 -7 -33 -8 -45 0 -12 -5 -19 -9 -17
-12 8 -10 64 3 64 5 0 7 5 4 10 -3 6 -1 10 5 10 6 0 8 -10 5 -22z m525 -69 c0
-5 -4 -9 -10 -9 -5 0 -10 6 -10 13 0 8 -4 7 -10 -3 -5 -8 -10 -10 -10 -4 0 6
3 13 6 17 8 8 34 -3 34 -14z m-131 0 c-17 -11 -72 -12 -65 -1 2 4 21 8 42 9
25 1 33 -2 23 -8z m190 -27 c-1 -17 -3 -21 -6 -9 -2 9 -9 15 -14 12 -5 -4 -9
-1 -9 4 0 6 5 11 11 11 5 0 7 5 3 12 -4 7 -3 8 4 4 7 -4 11 -19 11 -34z m4001
8 c0 -5 -4 -10 -10 -10 -5 0 -10 5 -10 10 0 6 5 10 10 10 6 0 10 -4 10 -10z
m-3939 -19 c9 4 25 7 37 4 27 -5 72 -35 72 -47 0 -5 -7 -3 -15 6 -19 19 -46
10 -38 -12 4 -9 11 -20 17 -24 6 -4 7 -10 4 -14 -9 -8 -29 12 -47 48 -11 21
-19 26 -36 22 -13 -3 -27 1 -36 12 -13 16 -12 16 6 6 13 -6 27 -7 36 -1z
m-131 -15 c0 -2 -3 -11 -6 -20 -9 -23 -24 -20 -24 4 0 11 7 20 15 20 8 0 15
-2 15 -4z m-1103 -38 c-3 -8 -6 -5 -6 6 -1 11 2 17 5 13 3 -3 4 -12 1 -19z
m1253 -16 c0 -10 9 -24 20 -32 23 -17 26 -30 6 -30 -8 0 -18 9 -21 20 -4 11
-12 20 -18 19 -29 -3 -57 2 -57 11 0 6 11 10 25 10 14 0 25 5 25 10 0 6 5 10
10 10 6 0 10 -8 10 -18z m-1230 -2 c0 -5 -5 -10 -11 -10 -5 0 -7 5 -4 10 3 6
8 10 11 10 2 0 4 -4 4 -10z m1340 -50 c0 -5 -7 -10 -15 -10 -8 0 -15 5 -15 10
0 6 7 10 15 10 8 0 15 -4 15 -10z m3791 -21 c-27 -11 -81 -9 -81 3 0 4 24 8
53 7 43 0 48 -2 28 -10z m-3741 -19 c0 -5 -2 -10 -4 -10 -3 0 -8 5 -11 10 -3
6 -1 10 4 10 6 0 11 -4 11 -10z m4000 0 c0 -5 -4 -10 -9 -10 -6 0 -13 5 -16
10 -3 6 1 10 9 10 9 0 16 -4 16 -10z m-66 -46 c3 -8 2 -12 -4 -9 -6 3 -10 10
-10 16 0 14 7 11 14 -7z m-529 -14 c-3 -5 -12 -10 -20 -10 -8 0 -17 5 -20 10
-4 6 5 10 20 10 15 0 24 -4 20 -10z m-3265 -30 c0 -17 -7 -20 -39 -20 -22 0
-43 5 -46 10 -4 6 5 10 19 10 14 0 26 5 26 10 0 6 9 10 20 10 13 0 20 -7 20
-20z m2884 5 c3 -9 0 -15 -9 -15 -8 0 -15 7 -15 15 0 8 4 15 9 15 5 0 11 -7
15 -15z m-2638 -30 c1 -8 -1 -13 -6 -10 -4 3 -11 -7 -14 -21 -9 -34 -40 -28
-44 9 -3 21 1 27 17 27 11 0 23 5 26 11 8 12 18 5 21 -16z m3561 -7 c-3 -7 -5
-2 -5 12 0 14 2 19 5 13 2 -7 2 -19 0 -25z m-3561 -102 c18 -19 18 -26 -1 -26
-8 0 -15 2 -15 4 0 2 -3 11 -6 20 -8 20 3 21 22 2z m94 -66 c0 -11 -4 -20 -9
-20 -7 0 -8 17 -2 38 4 10 11 -2 11 -18z m3581 -3 c-10 -9 -11 -8 -5 6 3 10 9
15 12 12 3 -3 0 -11 -7 -18z m-3531 -27 c0 -5 -5 -10 -11 -10 -5 0 -7 5 -4 10
3 6 8 10 11 10 2 0 4 -4 4 -10z m927 -277 c-2 -32 -3 -6 -3 57 0 63 1 89 3 58
2 -32 2 -84 0 -115z m-4064 -10 c11 -281 53 -573 121 -847 24 -95 29 -129 20
-133 -18 -6 -301 1 -308 8 -15 14 -45 150 -40 176 3 15 1 39 -5 53 -8 22 -10
22 -11 5 -1 -17 -3 -17 -11 5 -6 14 -15 45 -19 70 -5 25 -18 92 -30 150 -11
58 -19 116 -17 130 1 14 9 -15 16 -63 8 -48 17 -90 21 -92 3 -2 -4 60 -16 138
-26 167 -44 365 -44 483 l0 84 158 0 159 0 6 -167z m701 115 c3 -29 6 -93 6
-143 0 -194 48 -595 101 -854 10 -51 19 -95 19 -97 0 -2 -137 -4 -305 -4 -280
0 -305 1 -313 18 -10 18 -58 209 -72 282 -55 303 -74 456 -85 703 l-7 147 325
0 324 0 7 -52z m44 -55 c-1 -110 -5 -97 -10 35 -2 39 0 72 5 72 4 0 6 -48 5
-107z m398 88 c-15 -16 -16 -23 -5 -42 6 -12 14 -45 18 -73 5 -39 11 -53 29
-62 l23 -11 -40 -47 c-23 -26 -41 -49 -41 -52 0 -3 7 -19 16 -36 9 -17 14 -41
11 -54 -7 -39 24 -77 72 -89 43 -10 43 -11 75 -96 36 -95 64 -145 97 -175 33
-29 67 -113 62 -151 -9 -60 107 -203 166 -203 57 0 118 -37 96 -58 -3 -3 -5 0
-5 6 0 9 -105 12 -414 12 -387 0 -415 1 -419 18 -64 242 -127 765 -127 1053
l0 79 202 0 c198 0 201 0 184 -19z m2874 -133 l0 -151 -23 22 c-15 13 -30 19
-40 15 -10 -3 -17 -1 -17 6 0 6 5 8 12 4 7 -5 8 -3 4 5 -5 7 -14 10 -22 7 -8
-3 -13 0 -11 6 1 7 -6 14 -15 16 -12 2 -18 -3 -18 -13 0 -9 -5 -13 -10 -10 -8
5 -8 11 0 20 8 10 1 18 -30 34 -39 20 -44 21 -105 6 -49 -11 -76 -12 -122 -4
-32 6 -68 11 -79 10 -17 0 -23 8 -30 41 -9 40 -10 41 -74 59 -91 25 -164 34
-156 20 10 -15 -6 -14 -30 3 -20 14 -104 16 -134 3 -9 -5 -28 4 -50 23 l-35
30 493 0 492 0 0 -152z m360 123 c0 -16 -9 -39 -20 -52 l-21 -24 -15 23 c-13
17 -26 22 -63 22 l-46 0 25 -20 c16 -12 33 -17 49 -13 17 4 22 2 17 -6 -4 -6
-12 -8 -18 -5 -6 4 -8 -1 -3 -15 5 -16 -3 -36 -26 -73 -36 -56 -46 -110 -24
-128 17 -14 11 -30 -10 -30 -10 0 -13 10 -11 35 2 31 0 34 -12 21 -17 -17 -8
-52 18 -66 15 -8 29 -4 64 20 43 30 60 59 68 119 2 14 9 26 17 29 11 4 12 -8
6 -63 -5 -52 -4 -70 7 -76 10 -7 11 -11 0 -17 -21 -14 -3 -40 32 -46 44 -8 69
2 60 23 -4 9 -10 42 -12 74 -3 46 -1 57 12 57 25 0 28 18 15 71 -11 41 -11 54
0 71 11 18 10 23 -16 43 -15 13 -31 21 -35 19 -3 -2 -4 5 -1 16 5 18 14 20 77
20 80 0 90 -4 76 -31 -8 -14 -6 -21 10 -29 28 -15 49 -60 43 -92 -8 -43 5 -76
37 -93 34 -17 106 -20 116 -4 3 6 21 17 39 25 29 12 38 12 69 -1 34 -14 39
-14 84 7 35 17 52 33 66 63 65 133 76 150 95 153 20 3 21 -1 21 -65 0 -37 -3
-132 -7 -210 l-6 -141 -61 -20 c-42 -14 -67 -17 -84 -11 -40 15 -67 10 -102
-21 -23 -19 -28 -28 -15 -23 12 4 17 2 12 -3 -5 -5 -16 -9 -25 -10 -54 -3 -55
-4 -43 -18 9 -11 9 -16 0 -22 -8 -4 -9 -3 -5 5 13 21 -23 23 -68 5 -24 -10
-43 -21 -41 -24 2 -3 -11 -6 -28 -7 -18 -1 -61 -5 -97 -10 l-65 -9 72 -13 c66
-13 81 -12 180 8 59 11 122 21 138 21 17 0 73 11 125 25 52 13 96 22 99 20 5
-6 -27 -354 -45 -484 -19 -142 -19 -141 14 -141 l28 0 13 103 c13 105 35 326
46 457 l6 75 52 25 c67 32 75 62 22 80 -20 6 -42 9 -50 6 -13 -5 -15 16 -15
132 0 75 3 168 7 205 l6 68 111 -3 c107 -3 111 -4 114 -25 3 -19 -1 -23 -22
-23 -22 0 -27 -7 -41 -52 -16 -55 -27 -68 -61 -68 -45 0 -61 -42 -56 -150 3
-66 11 -73 85 -75 l65 -3 100 102 c71 72 103 113 112 141 7 22 20 51 29 64 9
14 21 39 26 55 l10 31 219 3 219 2 -6 -192 c-4 -106 -14 -258 -22 -338 -16
-150 -65 -461 -89 -563 -10 -45 -11 -57 -1 -54 13 6 42 -9 34 -17 -3 -4 -1950
-10 -2157 -7 -37 1 -43 4 -38 19 4 10 10 64 16 120 11 114 37 180 97 241 l35
36 -6 -125 c-3 -69 -9 -158 -12 -197 l-7 -73 37 0 c31 0 36 3 36 24 0 13 9 35
20 49 20 25 12 46 -12 31 -8 -5 -10 24 -5 116 4 68 7 151 7 184 0 56 3 66 40
115 23 30 39 60 36 68 -3 8 -2 12 3 9 4 -3 13 5 20 17 15 28 -9 154 -28 149
-7 -1 -10 2 -7 7 11 17 -6 41 -30 41 l-24 0 0 170 0 170 150 0 150 0 0 -29z
m1805 -113 c-4 -79 -9 -145 -12 -148 -5 -5 -1 271 4 283 12 23 14 -8 8 -135z
m438 89 c-4 -42 -1 -62 17 -98 81 -163 90 -195 91 -316 1 -66 -3 -119 -9 -125
-13 -13 -4 -191 11 -200 5 -3 16 -4 23 -1 18 7 24 -10 8 -25 -12 -11 -15 -11
-20 1 -2 7 -11 14 -20 14 -11 0 -10 -5 6 -22 l20 -21 -34 -79 c-19 -43 -41
-82 -50 -87 -9 -5 -16 -21 -17 -36 0 -15 -3 -21 -6 -14 -2 6 -11 12 -18 12 -8
0 -17 5 -21 12 -4 7 -3 8 4 4 8 -5 10 -1 5 11 -6 14 -10 11 -21 -17 -23 -54
-32 -119 -15 -113 18 7 43 -15 36 -33 -6 -15 -42 -10 -53 7 -3 5 -114 10 -245
11 -205 3 -240 5 -240 18 0 8 7 53 17 100 60 288 108 723 108 977 l0 73 214 0
215 0 -6 -53z m-6581 -82 c3 -66 2 -106 -2 -90 -8 31 -13 222 -6 214 2 -2 6
-58 8 -124z m5170 85 c-2 -22 -6 -40 -8 -40 -2 0 -4 18 -4 40 0 22 3 40 8 40
4 0 6 -18 4 -40z m2148 30 c0 -5 -7 -10 -15 -10 -8 0 -15 5 -15 10 0 6 7 10
15 10 8 0 15 -4 15 -10z m-7670 -383 c6 -55 9 -101 7 -103 -9 -9 -28 186 -32
321 l-4 140 9 -130 c5 -71 14 -174 20 -228z m7666 337 c-3 -9 -6 -27 -6 -40 0
-13 -4 -24 -10 -24 -5 0 -10 18 -10 40 0 30 4 40 16 40 11 0 14 -5 10 -16z
m-4111 -4 c-7 -11 -90 -70 -99 -70 -3 0 -11 10 -17 23 -6 12 -8 19 -4 15 11
-11 36 12 28 26 -3 6 -3 8 1 5 4 -4 19 -3 34 1 38 12 64 12 57 0z m75 -26 c0
-9 -31 -37 -36 -32 -9 9 8 38 22 38 8 0 14 -3 14 -6z m-83 -49 c8 -9 13 -19
10 -22 -6 -5 -37 21 -37 31 0 10 11 6 27 -9z m193 6 c0 -5 -9 -7 -20 -4 -11 3
-20 7 -20 9 0 2 9 4 20 4 11 0 20 -4 20 -9z m3920 -16 c0 -8 -7 -15 -15 -15
-16 0 -20 12 -8 23 11 12 23 8 23 -8z m-3510 -39 c0 -3 -4 -8 -10 -11 -5 -3
-10 -1 -10 4 0 6 5 11 10 11 6 0 10 -2 10 -4z m434 -20 c-3 -9 -10 -13 -15
-10 -5 3 -3 11 4 19 15 16 19 13 11 -9z m-689 -26 c-3 -5 -13 -10 -21 -10 -8
0 -14 5 -14 10 0 6 9 10 21 10 11 0 17 -4 14 -10z m220 0 c4 -6 -5 -10 -19
-10 -14 0 -26 5 -26 10 0 6 9 10 19 10 11 0 23 -4 26 -10z m938 -7 c-7 -2 -19
-2 -25 0 -7 3 -2 5 12 5 14 0 19 -2 13 -5z m-430 -33 c-3 -12 -8 -19 -11 -16
-5 6 5 36 12 36 2 0 2 -9 -1 -20z m-43 0 c0 -5 -4 -10 -10 -10 -5 0 -10 5 -10
10 0 6 5 10 10 10 6 0 10 -4 10 -10z m-283 -30 c-1 -13 -8 -20 -21 -20 -19 0
-19 0 0 19 24 25 23 25 21 1z m98 -49 c3 -5 2 -12 -3 -15 -5 -3 -9 1 -9 9 0
17 3 19 12 6z m-4028 -43 c-3 -7 -5 -2 -5 12 0 14 2 19 5 13 2 -7 2 -19 0 -25z
m27 -188 c4 -25 3 -31 -4 -20 -5 8 -10 26 -10 39 0 32 6 24 14 -19z m4616 10
c0 -5 -7 -10 -15 -10 -8 0 -15 5 -15 10 0 6 7 10 15 10 8 0 15 -4 15 -10z
m-4551 -355 c0 -5 -4 -3 -9 5 -5 8 -9 22 -9 30 0 16 17 -16 18 -35z m64 -383
c92 -287 258 -643 405 -870 l15 -23 -136 2 -136 1 -24 36 c-74 109 -146 228
-237 392 -34 60 -130 262 -140 295 -7 22 -16 45 -20 50 -4 6 -18 42 -31 80
-13 39 -29 79 -36 90 -16 25 -17 52 0 58 6 3 77 6 157 6 l145 1 38 -118z m642
81 c34 -184 182 -610 296 -851 27 -58 49 -109 49 -113 0 -5 -115 -9 -255 -9
l-254 0 -16 30 c-9 17 -18 30 -21 30 -3 0 -2 -6 1 -12 4 -7 -3 -2 -14 12 -11
14 -19 30 -17 35 5 15 -26 65 -41 65 -7 0 -10 6 -7 14 3 7 -2 16 -11 20 -9 3
-15 11 -13 18 4 18 -23 79 -32 73 -4 -3 -11 2 -14 11 -4 9 -2 13 5 8 7 -4 6 2
-1 17 -16 30 -25 39 -18 18 4 -9 1 -16 -8 -16 -7 0 -11 4 -8 9 3 4 0 8 -7 8
-7 0 -10 3 -6 6 3 3 2 17 -3 30 -6 15 -6 24 0 24 5 0 -6 30 -24 68 -18 37 -39
83 -46 104 -9 23 -18 34 -27 31 -7 -3 -13 0 -13 6 0 6 4 11 9 11 5 0 -4 33
-19 73 -16 39 -33 71 -39 70 -6 -2 -8 8 -5 27 5 22 2 31 -10 36 -9 3 -13 10
-10 15 8 14 -26 110 -37 103 -5 -3 -9 -3 -9 0 0 2 -3 13 -6 23 -5 15 -4 16 6
3 9 -12 11 -10 7 13 l-4 27 307 0 308 0 7 -37z m944 -147 c45 -259 149 -685
197 -809 4 -12 1 -17 -11 -17 -9 0 -13 -4 -10 -10 3 -5 0 -10 -9 -10 -8 0 -16
4 -18 10 -2 6 -127 10 -341 10 l-339 1 -53 112 c-64 135 -95 208 -147 347 -40
106 -133 402 -150 475 -5 22 -11 48 -14 58 -5 16 20 17 428 17 l434 0 33 -184z
m2187 97 c-4 -49 -11 -146 -16 -218 -23 -320 -43 -561 -49 -567 -5 -6 -90 4
-261 31 -72 11 -117 -8 -215 -94 -77 -67 -91 -76 -82 -51 7 17 -1 24 -77 65
-42 23 -57 27 -52 15 3 -8 6 -20 6 -25 0 -4 25 -24 55 -44 77 -49 103 -47 174
15 94 81 105 84 282 60 83 -11 155 -23 160 -26 6 -3 9 -25 7 -47 -3 -39 -1
-42 23 -45 23 -3 27 1 33 32 8 44 23 45 61 6 l29 -30 130 0 130 0 -22 22 c-20
20 -33 23 -132 24 -108 2 -110 2 -146 33 l-36 32 11 117 c19 207 32 382 44
582 l12 195 513 3 513 2 -6 -22 c-2 -13 -12 -66 -21 -118 -39 -235 -119 -575
-182 -777 -28 -88 -29 -93 -11 -98 41 -13 5 -23 -64 -18 -39 3 -92 0 -117 -6
-31 -7 -46 -7 -51 1 -4 6 -11 8 -17 5 -12 -8 -1217 -8 -1434 0 -115 4 -158 2
-158 -6 0 -8 -4 -8 -14 1 -12 11 -12 16 4 33 11 11 35 54 54 95 44 94 62 115
109 135 40 17 44 31 26 85 -10 29 -10 34 7 43 10 6 25 12 32 13 21 4 23 7 32
70 11 78 16 88 48 101 15 7 70 35 122 62 83 44 102 51 155 51 58 0 62 2 101
43 82 86 130 168 140 239 9 70 7 68 85 68 l72 0 -7 -87z m2014 77 c0 -26 -115
-404 -161 -526 -49 -132 -139 -344 -181 -428 -19 -38 -20 -40 -2 -53 15 -11
-38 -13 -322 -13 -251 0 -343 -3 -352 -12 -9 -9 -12 -9 -12 1 0 8 -11 11 -32
9 -30 -3 -33 -1 -30 22 2 14 17 68 33 121 66 219 189 771 189 853 0 12 3 26 7
29 11 11 863 8 863 -3z m555 -34 c24 -157 -28 -380 -140 -601 -95 -186 -195
-356 -215 -363 -8 -3 -17 -9 -20 -13 -6 -8 -477 -15 -485 -7 -3 2 11 38 31 79
129 267 237 569 324 907 l11 42 244 0 244 0 6 -44z m-4680 -20 c28 -37 44
-127 45 -258 0 -42 5 -99 11 -127 6 -27 9 -63 7 -78 -3 -23 -6 -18 -17 27 -25
104 -51 231 -66 323 -9 51 -18 104 -21 120 -8 37 9 34 41 -7z m-1547 -251 c-3
-3 -9 2 -12 12 -6 14 -5 15 5 6 7 -7 10 -15 7 -18z m56 -131 c3 -8 2 -12 -4
-9 -6 3 -10 10 -10 16 0 14 7 11 14 -7z m6025 -370 c-11 -32 -23 -67 -26 -76
-3 -12 3 -21 21 -29 14 -7 26 -18 26 -25 0 -24 -20 -25 -47 -4 -38 30 -56 2
-38 -57 7 -20 4 -23 -23 -23 -47 0 -47 24 1 103 24 40 56 96 72 125 15 28 30
51 32 49 2 -2 -6 -30 -18 -63z m-3638 -214 c8 0 24 -7 36 -15 12 -9 46 -18 75
-21 29 -3 53 -6 55 -7 1 -2 5 -34 9 -72 5 -58 4 -68 -7 -57 -19 17 -50 15 -78
-7 -32 -24 -55 -17 -40 12 9 16 8 23 -6 33 -14 10 -16 21 -11 49 6 29 4 36
-11 41 -30 10 -83 35 -83 39 0 2 3 11 6 20 6 14 8 14 24 0 9 -8 23 -15 31 -15z
m3474 10 c3 -5 -3 -10 -15 -10 -12 0 -18 5 -15 10 3 6 10 10 15 10 5 0 12 -4
15 -10z m-5535 -108 c145 -216 337 -439 539 -625 58 -54 108 -103 110 -109 2
-6 -28 -8 -80 -6 -94 3 -94 3 -253 137 -43 36 -83 65 -87 63 -5 -1 -8 1 -7 5
1 5 -59 69 -133 143 -136 135 -203 209 -314 350 -33 41 -63 77 -67 78 -14 6
-8 20 10 25 9 3 67 5 127 6 l110 0 45 -67z m554 9 c22 -42 27 -58 18 -71 -8
-14 -5 -25 16 -54 14 -20 35 -39 46 -42 13 -4 47 -47 86 -107 82 -128 186
-267 284 -379 42 -48 76 -90 76 -93 0 -3 -82 -5 -183 -4 -177 1 -183 2 -210
25 -16 13 -25 29 -22 34 4 6 1 9 -7 8 -7 -2 -12 3 -10 10 1 8 -2 11 -7 7 -13
-7 -93 64 -85 76 3 5 -2 9 -10 9 -9 0 -15 3 -14 8 2 4 -1 9 -7 10 -19 7 -35
24 -29 33 3 5 0 8 -7 7 -7 -2 -18 7 -24 20 -5 12 -16 22 -24 22 -8 0 -11 3 -8
7 4 3 -3 11 -16 17 -12 7 -22 18 -22 26 0 8 -6 15 -13 15 -17 0 -43 35 -36 47
3 5 0 7 -8 6 -7 -2 -12 3 -10 10 1 6 -3 11 -10 10 -7 -2 -12 2 -13 9 0 15 -14
28 -28 28 -6 0 -14 11 -17 25 -4 14 -12 24 -18 23 -7 -2 -12 6 -12 17 0 11 -6
19 -12 17 -7 -1 -12 4 -11 10 2 7 -2 12 -8 10 -6 -1 -13 7 -15 18 -1 10 -13
27 -26 37 -13 10 -19 18 -15 18 15 0 -34 60 -50 60 -9 0 -13 6 -9 15 3 8 0 14
-6 12 -7 -1 -17 13 -23 31 -6 18 -14 29 -18 26 -4 -4 -7 0 -7 10 0 9 -4 14
-10 11 -5 -3 -10 -2 -10 4 0 18 25 20 270 18 l245 -2 29 -54z m117 29 c-10
-54 -6 -85 9 -85 10 0 18 17 24 52 7 39 14 53 30 57 12 3 144 6 295 6 l273 0
-7 -22 c-4 -13 -8 -37 -9 -53 -1 -17 -7 -39 -13 -50 -9 -15 -6 -27 18 -61 17
-25 29 -56 29 -74 0 -17 11 -53 25 -80 14 -27 25 -63 25 -80 0 -33 23 -42 34
-14 9 24 16 13 30 -49 14 -60 8 -88 -14 -62 -11 13 -16 9 -37 -31 -23 -44 -24
-47 -7 -65 9 -10 28 -19 41 -19 18 0 23 -5 21 -17 -5 -21 24 -84 46 -102 9 -8
16 -18 16 -23 0 -5 -77 -8 -180 -8 -99 1 -178 5 -177 8 4 12 -77 102 -91 102
-7 0 -11 4 -8 8 4 7 -94 134 -153 200 -12 12 -21 25 -21 28 0 2 -16 27 -35 55
l-35 51 22 31 c17 24 19 32 8 35 -19 7 -154 134 -158 149 -2 7 -10 13 -18 13
-8 0 -12 5 -9 11 4 5 0 18 -8 27 -15 18 -47 76 -47 87 0 3 19 5 43 3 39 -3 42
-5 38 -28z m1777 22 c16 -2 22 -8 22 -24 1 -22 1 -22 25 5 l24 27 336 0 335 0
0 -38 c0 -49 -64 -484 -94 -642 -17 -87 -21 -129 -14 -137 11 -14 9 -15 -22
-15 -576 0 -649 2 -648 20 0 9 -12 76 -26 148 -31 163 -77 465 -71 474 2 4 34
15 70 25 36 9 65 20 65 24 0 3 3 17 7 29 5 21 4 23 -13 13 -31 -17 -128 -41
-135 -33 -4 4 -9 33 -13 64 -6 53 -5 57 16 60 21 4 77 3 136 0z m1662 -3 c0
-17 -81 -231 -133 -349 -61 -142 -123 -265 -181 -364 -25 -42 -43 -83 -40 -91
5 -13 -35 -15 -313 -15 l-319 0 28 138 c15 75 44 256 64 402 20 146 38 270 40
277 4 15 854 18 854 2z m780 6 c0 -25 -152 -276 -255 -420 -90 -127 -131 -178
-233 -293 -62 -68 -72 -85 -62 -97 11 -13 -20 -15 -259 -15 -149 0 -271 3
-271 6 0 4 31 63 69 133 98 178 186 375 258 576 14 39 29 80 34 93 l9 22 355
0 c195 0 355 -2 355 -5z m570 0 c0 -9 -128 -184 -209 -285 -41 -52 -150 -170
-241 -261 -260 -261 -301 -294 -322 -265 -4 6 -12 5 -21 -3 -12 -10 -20 -10
-37 1 -17 11 -22 11 -29 0 -6 -9 -35 -12 -110 -10 l-103 3 34 41 c18 23 65 79
104 125 110 132 156 197 148 210 -4 7 -3 9 4 5 16 -9 135 170 237 359 l47 85
249 0 c137 0 249 -2 249 -5z m-3183 -77 c-3 -7 -5 -2 -5 12 0 14 2 19 5 13 2
-7 2 -19 0 -25z m-54 -114 l33 -16 18 -126 c18 -131 73 -444 82 -474 5 -17 -7
-18 -154 -18 -119 0 -162 3 -166 13 -5 10 -7 10 -12 0 -3 -7 -19 -13 -35 -13
-18 0 -28 4 -24 10 3 6 -1 10 -9 10 -9 0 -16 -4 -16 -10 0 -5 -19 -10 -42 -10
-40 -1 -42 -2 -24 -15 16 -12 64 -15 255 -15 l236 0 38 -148 c21 -81 44 -161
51 -177 18 -41 36 -99 42 -132 3 -16 12 -35 20 -44 23 -26 17 -31 -43 -28 -37
2 -58 -1 -61 -9 -2 -7 -15 -12 -28 -12 -23 0 -25 3 -22 38 3 36 4 37 43 37 32
0 40 -4 39 -17 -1 -13 5 -18 22 -18 13 0 24 4 24 10 0 5 -8 7 -17 3 -14 -5
-15 -3 -6 7 15 17 -4 39 -29 32 -12 -3 -18 1 -18 12 0 9 8 16 20 16 11 0 20 5
20 10 0 6 -23 10 -51 10 l-51 0 7 38 7 37 -29 -25 c-39 -35 -43 -41 -43 -72 0
-29 -12 -34 -58 -21 -20 5 -23 11 -20 39 3 23 0 34 -9 34 -7 0 -13 -6 -13 -14
0 -7 -3 -28 -6 -45 -5 -24 -3 -31 10 -31 9 0 16 -4 16 -10 0 -5 -9 -10 -20
-10 -11 0 -20 -7 -20 -15 0 -9 -9 -15 -21 -15 -19 0 -21 5 -17 40 3 39 1 43
-76 118 -44 42 -104 106 -133 142 l-54 65 33 3 c31 3 35 7 44 48 8 34 8 49 -2
62 -12 15 -13 13 -14 -15 0 -38 -8 -40 -47 -15 -80 50 -111 82 -78 82 24 0 17
17 -9 22 -19 4 -23 1 -18 -11 5 -14 4 -14 -10 -1 -9 8 -14 18 -11 23 2 4 4 26
4 50 0 55 7 77 24 77 15 0 35 50 35 86 0 15 -6 24 -15 24 -8 0 -14 -3 -14 -7
6 -40 -14 -59 -24 -23 -3 13 -1 18 6 13 7 -3 4 3 -7 15 -10 12 -24 19 -30 15
-6 -3 -1 5 11 18 31 34 56 98 48 126 -10 42 4 87 35 108 25 17 42 52 44 90 1
12 183 24 213 14 15 -6 26 -2 39 12 21 23 43 24 87 3z m-424 -140 c11 -10 -12
-34 -34 -34 -26 0 -29 7 -19 34 6 15 37 14 53 0z m2892 -87 c-10 -9 -11 -8 -5
6 3 10 9 15 12 12 3 -3 0 -11 -7 -18z m709 -31 c0 -3 -4 -8 -10 -11 -5 -3 -10
-1 -10 4 0 6 5 11 10 11 6 0 10 -2 10 -4z m-400 -169 c0 -2 -12 -14 -27 -28
l-28 -24 24 28 c23 25 31 32 31 24z m-185 -177 c-3 -5 -12 -10 -18 -10 -7 0
-6 4 3 10 19 12 23 12 15 0z m-40 -20 c3 -5 2 -10 -4 -10 -5 0 -13 5 -16 10
-3 6 -2 10 4 10 5 0 13 -4 16 -10z m-4030 -49 c8 -15 180 -141 265 -196 175
-112 426 -243 575 -300 11 -4 15 -9 10 -11 -10 -4 -64 13 -190 60 -22 8 -82
33 -133 55 -52 23 -99 38 -105 35 -7 -4 -9 -4 -5 1 5 5 -49 37 -119 73 -70 35
-159 82 -198 105 -83 48 -275 175 -275 182 0 9 169 5 175 -4z m472 -65 c147
-140 324 -272 491 -368 113 -65 118 -71 60 -66 -62 4 -65 -17 -5 -33 23 -6 54
-17 70 -25 16 -9 27 -10 27 -4 0 16 86 12 100 -5 7 -8 28 -15 46 -15 32 0 33
-1 27 -32 -8 -47 -18 -54 -56 -40 -18 7 -44 12 -58 12 -49 0 -69 11 -70 39 -2
24 -2 24 -6 3 -7 -34 -24 -36 -108 -11 -56 16 -74 26 -70 36 3 8 5 26 5 39 0
18 6 24 23 25 15 0 6 7 -27 20 -26 11 -58 17 -70 14 -15 -5 -17 -4 -7 3 10 7
4 13 -25 23 -22 7 -50 12 -64 11 -17 -1 -21 1 -11 7 9 6 -24 27 -110 69 -68
34 -146 74 -174 90 -27 16 -61 35 -75 43 -14 8 -41 26 -60 40 -61 45 -130 80
-143 74 -6 -4 -3 1 8 10 20 17 19 17 -7 13 -15 -3 -25 -1 -22 3 5 9 -11 13
-30 10 -5 -1 -3 5 4 14 11 14 11 16 -1 13 -8 -2 -13 2 -12 8 1 6 -9 10 -23 8
-21 -2 -23 0 -13 12 10 12 10 14 -1 12 -7 -2 -15 3 -17 10 -4 9 33 12 161 12
l166 0 77 -74z m352 61 c27 -22 175 -104 201 -111 15 -3 43 -31 70 -68 25 -34
95 -112 155 -174 104 -106 109 -113 90 -125 -17 -12 -160 -31 -149 -20 7 8
-61 38 -75 33 -10 -4 -12 -1 -6 8 5 9 4 11 -4 6 -6 -4 -18 0 -27 8 -9 9 -19
14 -24 11 -4 -3 -11 2 -14 11 -4 9 -13 14 -21 10 -9 -3 -18 1 -21 9 -4 8 -10
13 -14 10 -4 -3 -11 2 -14 11 -3 8 -10 13 -15 10 -5 -3 -11 0 -14 7 -5 12 -71
51 -89 52 -3 0 -15 9 -25 21 -24 27 -108 84 -124 84 -7 0 -9 3 -6 6 9 10 -64
65 -76 57 -5 -3 -7 -2 -4 4 8 12 -91 99 -107 95 -6 -2 -8 0 -3 4 4 4 -3 18
-15 31 l-21 23 168 0 c124 0 173 -3 184 -13z m1487 -4 c-3 -10 -14 -56 -26
-103 -25 -100 -77 -269 -90 -290 -7 -11 -13 -12 -35 -2 -38 17 -76 16 -69 -3
5 -11 -1 -15 -24 -15 -17 0 -32 -4 -34 -9 -1 -5 -28 -10 -58 -12 -56 -2 -84
-11 -108 -36 -21 -20 -33 -15 -28 12 3 16 0 25 -9 25 -16 0 -34 39 -68 145
-30 91 -77 270 -77 291 0 12 53 14 316 14 296 0 315 -1 310 -17z m644 -3 c-53
-99 -348 -431 -358 -402 -6 19 -22 14 -22 -8 0 -11 -5 -20 -11 -20 -5 0 -8 4
-5 9 7 11 -17 21 -50 21 -15 0 -24 6 -24 16 0 15 -2 15 -25 0 -29 -19 -72 -21
-78 -3 -2 6 -7 -7 -11 -31 -5 -26 -12 -40 -18 -35 -7 3 -8 1 -4 -5 5 -9 -3
-11 -27 -10 -19 2 -33 7 -30 12 3 5 0 7 -6 5 -7 -3 -11 -9 -9 -14 2 -6 37 -10
78 -11 41 0 82 -4 91 -8 10 -4 25 -6 34 -4 10 2 20 -2 22 -9 3 -9 -34 -13
-141 -15 -117 -2 -146 0 -146 10 0 8 8 16 19 19 10 2 24 15 31 28 11 21 14 22
38 9 31 -16 42 -5 41 41 -1 17 -3 23 -6 13 -2 -9 -11 -19 -20 -22 -14 -6 -14
-4 -2 11 9 11 4 10 -15 -5 -16 -12 -32 -22 -37 -22 -11 0 -2 49 26 136 13 39
35 120 50 180 15 60 29 115 31 122 3 9 71 12 299 12 293 0 296 0 285 -20z
m534 -11 c-57 -61 -230 -201 -340 -275 -107 -72 -134 -85 -134 -64 0 13 -36
13 -60 0 -13 -7 -19 -6 -23 4 -6 15 -37 11 -112 -16 -45 -17 -105 -30 -105
-23 0 2 23 28 51 57 67 68 158 182 220 275 l50 73 241 0 242 0 -30 -31z m426
26 c0 -8 -141 -109 -240 -172 -155 -98 -422 -238 -433 -227 -2 3 -16 0 -30 -5
-18 -7 -37 -6 -62 2 l-36 12 103 71 c99 69 292 229 352 293 l30 31 158 0 c87
0 158 -2 158 -5z m225 -4 c3 -5 0 -13 -6 -17 -8 -5 -9 -3 -4 6 5 8 3 11 -6 8
-8 -3 -13 -13 -11 -23 3 -13 -1 -16 -13 -11 -10 3 -32 -3 -51 -15 -45 -28 -44
-37 2 -10 54 32 53 25 -2 -14 -27 -19 -55 -33 -62 -30 -8 3 -57 -21 -110 -52
-104 -61 -148 -93 -68 -49 27 14 51 25 53 23 3 -4 -111 -68 -132 -75 -5 -2 -1
4 9 12 11 9 16 16 12 16 -11 0 -126 -63 -122 -67 2 -2 20 5 41 17 21 12 40 19
42 16 5 -4 -89 -56 -102 -56 -4 0 -3 5 0 11 4 5 -10 3 -30 -5 -21 -9 -40 -16
-44 -16 -3 0 0 -4 7 -9 9 -6 -7 -17 -53 -37 -53 -22 -63 -30 -49 -35 23 -9 7
-11 -23 -3 -36 10 -27 28 25 53 129 62 417 246 407 260 -2 5 3 8 12 7 10 0 18
4 18 11 0 6 4 15 9 20 5 5 6 3 2 -4 -12 -21 4 -15 45 18 22 17 37 35 34 40 -4
5 0 6 8 3 8 -3 18 -1 22 5 8 13 132 15 140 2z m-166 -126 c-3 -2 -27 -16 -55
-31 -53 -28 -54 -25 -2 12 28 19 72 34 57 19z m-3434 -213 c-3 -3 -11 0 -18 7
-9 10 -8 11 6 5 10 -3 15 -9 12 -12z m3055 14 c0 -2 -7 -7 -16 -10 -8 -3 -12
-2 -9 4 6 10 25 14 25 6z m-1436 -95 c19 -21 14 -41 -10 -41 -16 0 -19 -26 -4
-35 31 -19 -4 -25 -145 -25 -97 0 -155 4 -155 10 0 6 11 10 25 10 19 0 25 5
23 18 -3 15 8 17 100 20 61 2 102 7 102 13 0 6 5 7 10 4 6 -4 10 5 10 19 0 31
20 34 44 7z m316 9 c0 -5 -2 -10 -4 -10 -3 0 -8 5 -11 10 -3 6 -1 10 4 10 6 0
11 -4 11 -10z m879 -17 c-27 -11 -31 -16 -19 -24 12 -9 12 -10 -3 -5 -10 3
-26 6 -35 6 -9 0 4 10 28 23 25 13 49 21 54 19 5 -3 -7 -11 -25 -19z m-939
-13 c0 -11 -6 -20 -13 -20 -19 0 -27 10 -20 26 8 21 33 17 33 -6z m300 16 c0
-3 -4 -8 -10 -11 -5 -3 -10 -1 -10 4 0 6 5 11 10 11 6 0 10 -2 10 -4z m-226
-29 c16 -12 15 -13 -9 -12 -32 2 -60 25 -29 25 11 0 28 -6 38 -13z m781 -7
c-3 -5 -14 -10 -23 -9 -14 0 -13 2 3 9 27 11 27 11 20 0z m-625 -15 c-14 -17
-18 -16 85 -20 40 -2 71 -7 73 -14 5 -14 67 -14 94 0 11 6 76 11 146 11 70 1
132 5 139 10 7 6 18 8 25 5 8 -4 5 -8 -9 -12 -28 -9 -28 -15 -4 -42 19 -20 19
-20 -33 -32 -47 -11 -206 -22 -326 -25 -25 0 -58 4 -74 8 -19 6 -27 6 -23 -1
4 -6 -5 -13 -21 -17 -15 -3 -67 -14 -116 -25 -49 -11 -93 -18 -98 -15 -4 3 -8
23 -8 45 l0 39 48 2 c26 1 59 2 74 3 15 1 31 4 34 8 12 12 52 8 57 -5 3 -8 6
-6 6 5 1 9 7 18 14 19 6 1 -26 4 -73 8 -74 5 -82 7 -60 17 14 6 32 18 39 27 7
9 16 16 18 16 3 0 0 -7 -7 -15z m-1226 -61 c9 -23 3 -26 -28 -14 -15 5 -24 14
-21 20 10 16 42 12 49 -6z m296 -34 c0 -5 -7 -10 -15 -10 -8 0 -15 5 -15 10 0
6 7 10 15 10 8 0 15 -4 15 -10z m90 -10 c14 -11 20 -19 14 -18 -7 2 -21 -8
-33 -21 -12 -13 -22 -22 -24 -20 -34 58 -36 79 -4 79 12 0 33 -9 47 -20z m110
0 c0 -11 -2 -20 -4 -20 -2 0 -6 9 -9 20 -3 11 -1 20 4 20 5 0 9 -9 9 -20z m90
10 c0 -5 -11 -10 -25 -10 -14 0 -25 5 -25 10 0 6 11 10 25 10 14 0 25 -4 25
-10z m87 -5 c0 -6 -8 -11 -18 -11 -9 0 -15 5 -12 11 5 15 30 15 30 0z m268 5
c-3 -5 -10 -10 -16 -10 -5 0 -9 5 -9 10 0 6 7 10 16 10 8 0 12 -4 9 -10z m-85
-20 c0 -5 -2 -10 -4 -10 -3 0 -8 5 -11 10 -3 6 -1 10 4 10 6 0 11 -4 11 -10z
m-215 -21 c4 -5 -1 -9 -10 -9 -9 0 -13 -4 -10 -10 3 -5 4 -10 1 -10 -3 0 -10
8 -15 18 -7 14 -6 18 10 19 10 1 21 -2 24 -8z m369 -11 c12 -47 8 -58 -24 -58
-22 0 -30 5 -30 18 0 9 -3 27 -6 40 -6 19 -3 22 24 22 22 0 31 -6 36 -22z
m-1478 -3 c18 -14 18 -14 -8 -15 -18 0 -28 5 -28 15 0 19 11 19 36 0z m487
-12 c20 -3 40 -10 43 -15 4 -6 -1 -8 -12 -4 -11 3 -43 7 -71 8 -37 2 -53 7
-53 17 0 10 8 11 28 6 15 -3 44 -9 65 -12z m454 -8 c31 -8 72 -15 90 -15 26 0
36 -5 42 -22 13 -36 2 -58 -30 -58 -28 0 -35 10 -30 48 3 20 -27 14 -34 -8 -5
-16 -15 -20 -56 -20 -42 0 -51 3 -59 23 -5 12 -9 16 -9 10 -1 -15 -51 -18 -51
-3 0 6 9 10 20 10 11 0 20 5 20 10 0 6 7 10 15 10 8 0 15 7 15 15 0 8 2 15 5
15 2 0 30 -7 62 -15z m-830 -22 c-7 -6 -67 9 -67 17 0 5 16 3 35 -3 19 -6 33
-12 32 -14z m1207 11 c11 -28 6 -64 -8 -64 -16 0 -26 21 -26 56 0 27 24 33 34
8z m-122 -44 l4 -40 -39 0 c-32 0 -38 3 -33 17 4 9 2 19 -4 23 -17 10 17 40
45 40 19 0 23 -6 27 -40z"/>
<path d="M3920 8010 c0 -13 7 -20 20 -20 11 0 20 5 20 10 0 6 9 10 20 10 11 0
20 5 20 10 0 6 -18 10 -40 10 -33 0 -40 -3 -40 -20z"/>
<path d="M4240 7973 c0 -10 5 -25 10 -33 7 -11 10 -7 10 18 0 17 -4 32 -10 32
-5 0 -10 -8 -10 -17z"/>
<path d="M4431 7964 c6 -8 18 -14 26 -14 20 0 8 16 -17 23 -17 4 -19 3 -9 -9z"/>
<path d="M3890 7831 c0 -12 6 -21 15 -21 8 0 15 3 15 6 0 3 -7 12 -15 20 -13
14 -15 13 -15 -5z"/>
<path d="M3840 7801 c0 -11 39 -41 53 -41 4 0 -3 11 -17 25 -27 27 -36 31 -36
16z"/>
<path d="M5560 7760 c0 -5 4 -10 9 -10 6 0 13 5 16 10 3 6 -1 10 -9 10 -9 0
-16 -4 -16 -10z"/>
<path d="M5600 7720 c0 -5 14 -10 30 -10 17 0 30 5 30 10 0 6 -13 10 -30 10
-16 0 -30 -4 -30 -10z"/>
<path d="M5680 7700 c0 -5 5 -10 10 -10 6 0 10 5 10 10 0 6 -4 10 -10 10 -5 0
-10 -4 -10 -10z"/>
<path d="M3681 7474 c0 -11 3 -14 6 -6 3 7 2 16 -1 19 -3 4 -6 -2 -5 -13z"/>
<path d="M3717 7422 c-35 -37 -34 -44 6 -40 28 3 32 7 35 36 4 39 -6 40 -41 4z"/>
<path d="M3661 7394 c0 -11 3 -14 6 -6 3 7 2 16 -1 19 -3 4 -6 -2 -5 -13z"/>
<path d="M3621 7184 c0 -23 -6 -55 -12 -72 -6 -17 -9 -39 -7 -49 3 -15 6 -14
22 9 15 24 17 36 8 90 -8 55 -10 58 -11 22z"/>
<path d="M3244 7113 c-11 -10 -15 -15 -10 -10 29 22 36 -11 8 -36 -10 -10 -30
-17 -45 -17 -17 0 -28 -7 -32 -21 -6 -18 -13 -20 -66 -17 -40 2 -60 -1 -64 -9
-2 -7 -11 -13 -20 -13 -8 0 -15 -5 -15 -11 0 -6 -6 -9 -14 -6 -10 4 -13 -2
-12 -24 3 -49 20 -56 58 -24 29 24 38 27 84 22 44 -5 55 -2 71 15 10 11 35 29
56 39 34 18 37 23 37 62 0 58 -11 73 -36 50z"/>
<path d="M3113 7073 c-15 -6 -17 -33 -3 -33 6 0 10 6 10 14 0 8 6 17 13 19 6
3 8 5 2 5 -5 0 -16 -2 -22 -5z"/>
<path d="M3579 6935 c-7 -47 -10 -87 -7 -90 3 -3 13 -2 22 1 12 5 14 9 6 14
-6 4 2 7 18 6 17 -1 28 -4 26 -7 -2 -4 3 -12 11 -19 12 -10 15 -10 15 1 -1 19
-28 77 -29 62 -1 -7 -12 -12 -25 -11 -21 2 -23 5 -13 17 7 8 12 26 13 40 0 14
4 35 9 46 4 11 5 17 0 13 -4 -4 -14 -3 -20 2 -10 8 -16 -9 -26 -75z"/>
<path d="M3592 6788 c-14 -14 -15 -74 -1 -103 8 -18 9 -17 5 5 -4 16 2 32 14
45 13 13 17 28 13 43 -6 25 -14 27 -31 10z"/>
<path d="M3649 6738 c-1 -7 -3 -23 -4 -35 -1 -13 3 -23 9 -23 6 0 4 -5 -4 -11
-12 -9 -12 -10 3 -5 10 3 21 6 24 6 2 0 -3 7 -11 16 -10 10 -14 24 -10 40 3
13 3 24 0 24 -3 0 -7 -6 -7 -12z"/>
<path d="M3541 6694 c0 -11 3 -14 6 -6 3 7 2 16 -1 19 -3 4 -6 -2 -5 -13z"/>
<path d="M2656 6675 c-9 -26 -7 -32 5 -12 6 10 9 21 6 23 -2 3 -7 -2 -11 -11z"/>
<path d="M3663 6653 c-29 -5 -29 -14 -2 -32 19 -11 21 -11 16 2 -3 8 0 20 6
26 6 6 9 10 7 10 -3 -1 -15 -4 -27 -6z"/>
<path d="M3704 6627 c3 -10 6 -23 6 -28 0 -6 5 -7 10 -4 6 3 10 2 10 -2 0 -5
8 -9 18 -9 9 -1 25 -4 35 -9 9 -4 17 -3 17 3 0 5 -10 13 -22 17 -21 7 -20 8
12 16 30 7 27 7 -17 4 -42 -3 -55 0 -64 13 -10 15 -10 15 -5 -1z"/>
<path d="M3606 6621 c-4 -6 -4 -26 0 -44 l7 -32 8 29 c9 32 -3 67 -15 47z"/>
<path d="M2626 6595 c-3 -9 -6 -22 -5 -28 0 -7 5 -1 10 12 5 13 8 26 5 28 -2
2 -6 -3 -10 -12z"/>
<path d="M3852 6563 c5 -19 1 -23 -26 -26 -25 -3 -23 -4 12 -5 41 -2 42 -1 31
21 -17 32 -23 35 -17 10z"/>
<path d="M3700 6560 c-21 -7 -19 -8 18 -9 23 -1 42 4 42 9 0 12 -24 12 -60 0z"/>
<path d="M3953 6533 c15 -2 37 -2 50 0 12 2 0 4 -28 4 -27 0 -38 -2 -22 -4z"/>
<path d="M2672 7629 c-23 -17 -42 -33 -42 -35 0 -3 20 9 45 27 40 29 51 39 42
39 -2 0 -22 -14 -45 -31z"/>
<path d="M6140 7448 c0 -10 5 -18 10 -18 6 0 10 7 10 16 0 8 5 12 10 9 6 -3
10 -2 10 4 0 5 -9 9 -20 8 -12 -1 -20 -8 -20 -19z"/>
<path d="M6200 7420 c0 -5 5 -10 10 -10 6 0 10 5 10 10 0 6 -4 10 -10 10 -5 0
-10 -4 -10 -10z"/>
<path d="M6160 7400 c0 -5 5 -10 10 -10 6 0 10 5 10 10 0 6 -4 10 -10 10 -5 0
-10 -4 -10 -10z"/>
<path d="M6294 6975 c-11 -27 1 -39 19 -21 9 10 17 22 17 27 0 15 -30 10 -36
-6z"/>
<path d="M6580 6444 c0 -8 9 -14 21 -14 11 0 19 5 17 12 -6 17 -38 19 -38 2z"/>
<path d="M6880 6300 c0 -5 5 -10 11 -10 5 0 7 5 4 10 -3 6 -8 10 -11 10 -2 0
-4 -4 -4 -10z"/>
<path d="M7252 5930 c0 -14 2 -19 5 -12 2 6 2 18 0 25 -3 6 -5 1 -5 -13z"/>
<path d="M3432 5365 c0 -16 2 -22 5 -12 2 9 2 23 0 30 -3 6 -5 -1 -5 -18z"/>
<path d="M4867 5355 c10 -13 22 -25 26 -25 4 0 0 11 -10 25 -10 13 -22 25 -26
25 -4 0 0 -11 10 -25z"/>
<path d="M4584 5280 c0 -52 1 -74 3 -47 2 26 2 68 0 95 -2 26 -3 4 -3 -48z"/>
<path d="M3415 5098 c-4 -117 -5 -235 -3 -263 1 -27 7 66 11 209 4 142 6 260
4 263 -3 2 -8 -92 -12 -209z"/>
<path d="M4594 5015 c0 -60 1 -84 3 -52 2 32 2 81 0 110 -2 29 -3 3 -3 -58z"/>
<path d="M6140 4940 c0 -5 5 -10 10 -10 6 0 10 5 10 10 0 6 -4 10 -10 10 -5 0
-10 -4 -10 -10z"/>
<path d="M6065 4900 c-3 -5 -1 -10 4 -10 6 0 11 5 11 10 0 6 -2 10 -4 10 -3 0
-8 -4 -11 -10z"/>
<path d="M6100 4840 c0 -5 9 -10 20 -10 11 0 20 5 20 10 0 6 -9 10 -20 10 -11
0 -20 -4 -20 -10z"/>
<path d="M6990 4840 c0 -5 5 -10 10 -10 6 0 10 5 10 10 0 6 -4 10 -10 10 -5 0
-10 -4 -10 -10z"/>
<path d="M6145 4820 c-3 -5 -1 -10 4 -10 6 0 11 5 11 10 0 6 -2 10 -4 10 -3 0
-8 -4 -11 -10z"/>
<path d="M6180 4820 c0 -5 5 -10 10 -10 6 0 10 5 10 10 0 6 -4 10 -10 10 -5 0
-10 -4 -10 -10z"/>
<path d="M5733 4770 c0 -30 2 -43 4 -27 2 15 2 39 0 55 -2 15 -4 2 -4 -28z"/>
<path d="M6260 4800 c0 -5 5 -10 10 -10 6 0 10 5 10 10 0 6 -4 10 -10 10 -5 0
-10 -4 -10 -10z"/>
<path d="M3404 4681 c1 -57 5 -76 16 -79 12 -4 13 -2 3 9 -7 8 -14 44 -16 79
-4 63 -4 63 -3 -9z"/>
<path d="M6300 4740 c0 -5 5 -10 10 -10 6 0 10 5 10 10 0 6 -4 10 -10 10 -5 0
-10 -4 -10 -10z"/>
<path d="M5135 4692 c-6 -4 -16 -19 -22 -33 -6 -14 -32 -39 -57 -55 -49 -31
-53 -43 -18 -59 12 -5 22 -18 22 -28 0 -9 11 -22 24 -28 36 -17 38 -53 4 -120
-16 -32 -34 -59 -39 -59 -24 0 -5 -31 27 -45 30 -12 88 -15 311 -15 l274 0 -3
33 c-2 18 -9 32 -16 32 -7 0 -17 6 -21 14 -7 10 -19 12 -47 6 -22 -5 -45 -9
-52 -11 -7 -1 -17 6 -22 17 -7 11 -7 19 -1 19 5 0 11 -5 13 -11 2 -7 4 5 5 25
1 39 3 38 -79 51 -29 4 -42 13 -53 35 -17 32 -29 41 -18 13 4 -11 3 -14 -6 -9
-6 4 -11 17 -9 29 2 14 -2 22 -12 22 -8 0 -15 7 -14 16 1 10 -8 14 -32 14 -19
-1 -34 2 -34 7 0 5 -4 7 -9 3 -11 -6 -43 34 -36 46 9 13 -14 61 -26 54 -12 -8
-51 24 -43 36 6 11 2 11 -11 1z"/>
<path d="M6300 4680 c0 -5 5 -10 10 -10 6 0 10 5 10 10 0 6 -4 10 -10 10 -5 0
-10 -4 -10 -10z"/>
<path d="M6615 4670 c-3 -11 -13 -20 -21 -20 -8 0 -14 -4 -14 -10 0 -16 57
-12 64 5 6 17 -2 45 -14 45 -5 0 -12 -9 -15 -20z"/>
<path d="M5220 4596 c0 -2 8 -10 18 -17 15 -13 16 -12 3 4 -13 16 -21 21 -21
13z"/>
<path d="M6380 4556 c0 -2 7 -7 16 -10 8 -3 12 -2 9 4 -6 10 -25 14 -25 6z"/>
<path d="M3802 6445 c-7 -8 -8 -15 -3 -15 5 0 13 5 16 10 9 15 25 12 25 -5 0
-8 4 -15 8 -15 4 0 8 9 8 20 0 24 -34 27 -54 5z"/>
<path d="M2566 6415 c-3 -9 -6 -22 -5 -28 0 -7 5 -1 10 12 5 13 8 26 5 28 -2
2 -6 -3 -10 -12z"/>
<path d="M2540 6330 c-15 -55 -7 -63 9 -9 7 22 10 43 7 46 -2 3 -10 -14 -16
-37z"/>
<path d="M3502 6345 c0 -16 2 -22 5 -12 2 9 2 23 0 30 -3 6 -5 -1 -5 -18z"/>
<path d="M2521 6254 c0 -11 3 -14 6 -6 3 7 2 16 -1 19 -3 4 -6 -2 -5 -13z"/>
<path d="M2506 6215 c-3 -9 -6 -24 -5 -33 0 -9 5 -4 10 12 9 32 6 48 -5 21z"/>
<path d="M3482 6135 c0 -16 2 -22 5 -12 2 9 2 23 0 30 -3 6 -5 -1 -5 -18z"/>
<path d="M2476 6099 c-8 -42 0 -50 9 -9 4 17 5 34 2 36 -2 3 -7 -10 -11 -27z"/>
<path d="M2462 6030 c0 -14 2 -19 5 -12 2 6 2 18 0 25 -3 6 -5 1 -5 -13z"/>
<path d="M2431 5909 c-7 -34 -10 -63 -8 -65 2 -3 10 23 17 56 7 33 11 63 8 65
-2 2 -10 -23 -17 -56z"/>
<path d="M3462 5880 c0 -14 2 -19 5 -12 2 6 2 18 0 25 -3 6 -5 1 -5 -13z"/>
<path d="M2405 5790 c-4 -23 -5 -43 -2 -46 2 -3 7 14 11 37 4 23 5 44 2 46 -2
2 -7 -14 -11 -37z"/>
<path d="M1715 5746 c-22 -7 -41 -20 -43 -29 -4 -20 51 -50 65 -36 20 20 83
28 111 14 15 -7 50 -25 78 -39 28 -14 54 -22 58 -18 4 4 6 2 5 -3 -2 -6 0 -24
4 -42 11 -53 52 -64 200 -55 19 1 27 7 27 20 0 20 -27 37 -75 47 -16 3 -52 21
-80 39 -109 71 -153 93 -209 104 -70 14 -88 14 -141 -2z m205 -26 c0 -5 -5
-10 -11 -10 -5 0 -7 5 -4 10 3 6 8 10 11 10 2 0 4 -4 4 -10z m75 -60 c3 -5 2
-10 -4 -10 -5 0 -13 5 -16 10 -3 6 -2 10 4 10 5 0 13 -4 16 -10z m90 -40 c3
-5 -3 -10 -14 -10 -12 0 -21 5 -21 10 0 6 6 10 14 10 8 0 18 -4 21 -10z m95
-46 c0 -2 -19 -3 -42 -3 -24 1 -35 3 -25 6 9 2 15 8 12 13 -3 5 8 4 25 -1 16
-6 30 -13 30 -15z m-150 6 c13 -8 13 -10 -2 -10 -9 0 -20 5 -23 10 -8 13 5 13
25 0z"/>
<path d="M3451 5734 c0 -11 3 -14 6 -6 3 7 2 16 -1 19 -3 4 -6 -2 -5 -13z"/>
<path d="M2391 5714 c0 -11 3 -14 6 -6 3 7 2 16 -1 19 -3 4 -6 -2 -5 -13z"/>
<path d="M4563 5665 c0 -22 2 -30 4 -17 2 12 2 30 0 40 -3 9 -5 -1 -4 -23z"/>
<path d="M2382 5655 c0 -16 2 -22 5 -12 2 9 2 23 0 30 -3 6 -5 -1 -5 -18z"/>
<path d="M3443 5605 c0 -38 2 -53 4 -32 2 20 2 52 0 70 -2 17 -4 1 -4 -38z"/>
<path d="M2371 5604 c0 -11 3 -14 6 -6 3 7 2 16 -1 19 -3 4 -6 -2 -5 -13z"/>
<path d="M2365 5560 c3 -6 -1 -10 -9 -10 -9 0 -16 -5 -16 -11 0 -14 42 -7 47
7 2 6 -3 14 -12 18 -9 3 -13 2 -10 -4z"/>
<path d="M2380 5515 c0 -8 5 -15 10 -15 6 0 10 7 10 15 0 8 -4 15 -10 15 -5 0
-10 -7 -10 -15z"/>
<path d="M3432 5490 c0 -14 2 -19 5 -12 2 6 2 18 0 25 -3 6 -5 1 -5 -13z"/>
<path d="M4572 5490 c0 -14 2 -19 5 -12 2 6 2 18 0 25 -3 6 -5 1 -5 -13z"/>
<path d="M1080 5560 c0 -5 5 -10 10 -10 6 0 10 5 10 10 0 6 -4 10 -10 10 -5 0
-10 -4 -10 -10z"/>
<path d="M2327 5325 c-3 -22 -8 -71 -11 -110 -4 -57 -3 -52 9 30 8 55 13 104
12 110 -2 5 -6 -8 -10 -30z"/>
<path d="M2298 5095 c-2 -25 0 -45 4 -45 5 0 8 20 8 45 0 25 -2 45 -4 45 -2 0
-6 -20 -8 -45z"/>
<path d="M646 5031 c-10 -49 -16 -95 -14 -101 2 -7 12 31 22 84 10 53 16 99
14 101 -2 3 -12 -35 -22 -84z"/>
<path d="M1313 4805 c0 -22 2 -30 4 -17 2 12 2 30 0 40 -3 9 -5 -1 -4 -23z"/>
<path d="M3000 4785 c0 -9 6 -12 15 -9 8 4 15 7 15 9 0 2 -7 5 -15 9 -9 3 -15
0 -15 -9z"/>
<path d="M278 3433 c5 -21 7 -23 10 -9 2 10 0 22 -6 28 -6 6 -7 0 -4 -19z"/>
<path d="M291 3384 c0 -11 3 -14 6 -6 3 7 2 16 -1 19 -3 4 -6 -2 -5 -13z"/>
<path d="M302 3340 c0 -14 2 -19 5 -12 2 6 2 18 0 25 -3 6 -5 1 -5 -13z"/>
<path d="M345 3180 c3 -14 8 -42 11 -63 4 -20 11 -40 15 -43 13 -8 11 4 -11
71 -11 33 -18 49 -15 35z"/>
<path d="M4064 4145 c-12 -9 -14 -14 -6 -15 7 0 10 -5 6 -12 -4 -7 -3 -8 4 -4
7 4 12 14 12 22 0 17 12 18 29 2 9 -9 12 -9 7 -1 -3 6 0 14 6 16 7 3 1 6 -13
6 -14 1 -34 -6 -45 -14z"/>
<path d="M4164 4134 c3 -7 -4 -14 -16 -17 -18 -5 -19 -8 -9 -21 11 -13 11 -17
-2 -22 -9 -3 -18 -13 -22 -22 -4 -12 1 -10 18 6 13 12 41 31 63 42 25 14 31
19 15 16 -16 -3 -30 1 -38 12 -8 9 -12 12 -9 6z m-4 -34 c0 -5 -2 -10 -4 -10
-3 0 -8 5 -11 10 -3 6 -1 10 4 10 6 0 11 -4 11 -10z"/>
<path d="M4087 4090 c-2 -9 2 -17 9 -17 7 0 11 4 8 9 -3 4 0 8 5 8 6 0 11 4
11 8 0 16 -29 9 -33 -8z"/>
<path d="M4657 3094 c-10 -10 -9 -44 2 -44 13 0 23 32 13 42 -5 5 -11 5 -15 2z"/>
<path d="M7217 3364 c-3 -4 -3 -14 2 -23 11 -23 8 -40 -7 -50 -11 -7 -11 -9 1
-14 9 -3 19 4 26 19 9 20 8 28 -4 40 -8 9 -13 20 -10 25 7 10 1 12 -8 3z"/>
<path d="M7180 3215 c0 -8 2 -15 4 -15 2 0 6 7 10 15 3 8 1 15 -4 15 -6 0 -10
-7 -10 -15z"/>
<path d="M430 2905 c0 -5 5 -17 10 -25 5 -8 10 -10 10 -5 0 6 -5 17 -10 25 -5
8 -10 11 -10 5z"/>
<path d="M1000 2365 c0 -8 4 -15 10 -15 5 0 7 7 4 15 -4 8 -8 15 -10 15 -2 0
-4 -7 -4 -15z"/>
<path d="M5223 2715 c3 -11 8 -45 12 -75 6 -55 6 -55 -34 -88 -25 -20 -38 -39
-34 -48 8 -22 29 -17 64 14 l32 29 -11 82 c-5 46 -16 88 -22 95 -9 8 -11 6 -7
-9z"/>
<path d="M5196 2456 c-3 -14 -19 -40 -35 -59 -16 -18 -37 -59 -46 -91 -10 -33
-29 -80 -44 -105 -32 -53 -44 -101 -30 -121 6 -11 9 -11 9 -2 0 7 16 36 35 65
19 29 42 80 50 112 10 36 27 72 44 90 39 42 58 102 38 122 -13 13 -15 12 -21
-11z"/>
<path d="M5015 2014 l-40 -24 53 0 c51 0 52 1 41 23 -6 12 -12 22 -13 23 0 0
-19 -10 -41 -22z"/>
<path d="M3762 2010 c0 -14 2 -19 5 -12 2 6 2 18 0 25 -3 6 -5 1 -5 -13z"/>
<path d="M2104 1615 c-13 -20 -15 -31 -7 -43 18 -30 98 -91 138 -107 26 -10
34 -11 24 -3 -19 15 -14 39 7 31 29 -11 12 13 -34 47 -26 19 -61 49 -79 68
l-32 33 -17 -26z"/>
<path d="M2294 1476 c-15 -24 -15 -27 13 -60 40 -49 81 -79 99 -72 8 3 13 2
10 -3 -3 -5 1 -12 10 -15 28 -11 64 6 80 37 l16 30 -29 -6 c-37 -7 -84 16
-126 63 -48 52 -54 54 -73 26z"/>
<path d="M3276 1637 c-9 -36 -8 -41 33 -99 36 -49 43 -54 70 -50 17 2 31 10
31 18 0 7 9 29 21 48 11 20 19 41 17 47 -3 8 -29 -31 -33 -48 0 -1 -12 -4 -26
-8 -24 -6 -30 0 -67 54 -35 53 -41 58 -46 38z"/>
<path d="M3853 653 c9 -2 23 -2 30 0 6 3 -1 5 -18 5 -16 0 -22 -2 -12 -5z"/>
<path d="M3943 653 c9 -2 23 -2 30 0 6 3 -1 5 -18 5 -16 0 -22 -2 -12 -5z"/>
<path d="M5975 980 c-3 -5 -1 -10 4 -10 6 0 11 5 11 10 0 6 -2 10 -4 10 -3 0
-8 -4 -11 -10z"/>
<path d="M5483 720 c-13 -5 -23 -11 -23 -14 0 -7 40 6 46 15 6 10 6 10 -23 -1z"/>
<path d="M4950 560 c0 -6 7 -10 15 -10 8 0 15 2 15 4 0 2 -7 6 -15 10 -8 3
-15 1 -15 -4z"/>
<path d="M4960 520 c0 -5 7 -10 15 -10 8 0 15 5 15 10 0 6 -7 10 -15 10 -8 0
-15 -4 -15 -10z"/>
<path d="M4630 480 c0 -5 9 -10 20 -10 11 0 20 5 20 10 0 6 -9 10 -20 10 -11
0 -20 -4 -20 -10z"/>
<path d="M3740 481 c0 -6 5 -13 10 -16 6 -3 10 1 10 9 0 9 -4 16 -10 16 -5 0
-10 -4 -10 -9z"/>
<path d="M6389 1284 c-21 -24 -22 -26 -3 -16 25 13 50 42 37 42 -5 0 -20 -12
-34 -26z"/>
</g>
</svg>
