<?xml version="1.0" standalone="no"?>
<!DOCTYPE svg PUBLIC "-//W3C//DTD SVG 20010904//EN"
 "http://www.w3.org/TR/2001/REC-SVG-20010904/DTD/svg10.dtd">
<svg class"text-color bg-color" version="1.0" xmlns="http://www.w3.org/2000/svg"
 width="224.000000pt" height="234.000000pt" viewBox="0 0 224.000000 234.000000"
 preserveAspectRatio="xMidYMid meet">

<g transform="translate(0.000000,234.000000) scale(0.100000,-0.100000)"
fill="#000000" stroke="none">
<path d="M906 2235 c-140 -27 -306 -94 -416 -168 -59 -40 -210 -191 -242 -242
-27 -44 -40 -84 -40 -130 0 -23 -1 -25 -7 -12 -6 17 -8 16 -19 -8 -8 -18 -9
-32 -2 -43 8 -15 10 -13 11 8 1 14 5 -2 10 -35 5 -40 4 -71 -4 -93 -11 -32
-14 -33 -57 -31 -64 2 -70 1 -64 -16 5 -11 10 -13 19 -5 6 5 37 9 68 9 42 -1
65 -8 88 -25 18 -13 36 -21 40 -19 13 8 57 -38 62 -65 4 -23 4 -24 6 -2 2 31
16 28 33 -8 8 -16 27 -39 42 -51 23 -18 32 -20 47 -11 42 26 54 -75 15 -120
l-24 -27 -161 0 -161 -1 -2 58 -1 57 -6 -55 -6 -55 -55 0 c-33 0 -53 -4 -50
-10 2 -6 28 -8 57 -7 l52 4 4 -59 3 -58 2 57 2 58 154 -1 154 0 5 -32 c2 -18
1 -36 -3 -42 -9 -12 5 -55 18 -55 11 0 72 -114 72 -134 0 -17 29 -42 55 -49
11 -2 -35 -5 -102 -6 l-122 -1 -11 54 c-6 29 -15 98 -19 152 -8 95 -8 96 -9
29 -1 -38 5 -106 13 -150 8 -44 15 -81 15 -82 0 -2 -40 -3 -89 -3 l-89 0 -11
48 c-6 26 -15 72 -20 102 -7 43 -9 48 -10 20 0 -19 6 -62 14 -95 8 -33 14 -63
15 -67 0 -5 -20 -8 -45 -8 -36 0 -45 4 -46 18 0 14 -2 14 -8 -3 -5 -11 -5 -22
-1 -25 5 -3 15 -21 24 -40 14 -31 13 -10 -2 28 -3 10 6 12 38 10 l43 -3 36
-90 c20 -49 49 -111 64 -137 15 -26 27 -49 27 -52 0 -14 -62 -4 -75 12 -8 9
-22 26 -31 37 -8 11 -6 4 5 -16 11 -20 20 -38 18 -40 -1 -2 44 -51 101 -109
l104 -105 -86 93 c-47 51 -86 97 -86 103 0 5 15 9 33 9 26 0 37 -7 57 -37 14
-21 56 -70 94 -110 71 -76 79 -96 27 -70 -27 14 -29 14 -19 -2 5 -9 21 -22 34
-28 13 -6 22 -7 18 -2 -13 22 40 6 83 -25 50 -35 93 -59 93 -53 0 2 -28 22
-62 43 l-63 39 47 3 c44 3 52 0 108 -47 34 -28 75 -58 91 -66 16 -9 27 -20 24
-24 -6 -11 19 -21 51 -21 13 0 24 -5 24 -11 0 -7 -15 -9 -42 -5 -24 3 -46 5
-50 5 -3 1 -8 8 -10 16 -2 9 -28 27 -58 40 -46 21 -51 22 -30 5 14 -10 37 -24
52 -30 14 -7 28 -20 31 -30 8 -32 138 -55 307 -55 140 1 203 9 314 42 63 19
44 33 -30 21 -30 -5 -59 -6 -63 -3 -5 2 -23 0 -40 -6 -38 -13 -52 -5 -26 15
12 9 53 14 119 16 149 3 152 3 152 21 0 11 -6 15 -16 11 -26 -9 1 12 79 62 40
26 81 46 90 44 10 -3 0 -13 -31 -32 -48 -28 -67 -47 -26 -25 126 68 264 198
400 379 27 36 58 76 68 88 11 13 20 32 20 42 0 10 9 34 19 52 38 64 71 254 71
404 0 146 -47 334 -119 474 -29 58 -43 74 -57 72 -15 -2 -16 -1 -5 7 31 20
-125 204 -256 304 -107 81 -313 182 -313 154 0 -7 -7 -3 -15 7 -12 16 -17 17
-30 6 -8 -7 -13 -15 -11 -19 2 -3 -11 -6 -29 -6 -18 0 -31 3 -29 7 3 4 -12 10
-33 13 -21 4 -46 9 -55 12 -12 3 -18 -1 -18 -11 0 -9 -8 -16 -19 -16 -11 0
-23 -4 -26 -10 -3 -5 -15 -10 -25 -10 -13 0 -22 -9 -26 -25 -7 -28 -15 -30
-47 -13 -37 19 -48 40 -28 55 14 11 14 14 1 24 -12 8 -9 10 13 6 15 -2 27 0
27 4 0 12 220 4 252 -9 19 -8 29 -8 34 -1 9 15 2 19 -63 35 -86 22 -320 27
-417 9z m74 -35 c0 -5 -5 -10 -11 -10 -5 0 -7 5 -4 10 3 6 8 10 11 10 2 0 4
-4 4 -10z m50 -20 c0 -5 -4 -10 -10 -10 -5 0 -10 5 -10 10 0 6 5 10 10 10 6 0
10 -4 10 -10z m429 -34 c10 -12 8 -13 -9 -9 -25 7 -37 23 -17 23 8 0 20 -6 26
-14z m-114 -6 c-3 -5 -15 -10 -26 -10 -10 0 -19 5 -19 10 0 6 12 10 26 10 14
0 23 -4 19 -10z m230 -27 c25 -16 45 -32 45 -37 0 -4 -7 -3 -15 4 -8 6 -19 9
-24 5 -14 -8 -61 24 -61 41 0 19 2 18 55 -13z m-814 -20 c34 -20 33 -33 -4
-51 -15 -7 -27 -18 -27 -23 0 -6 -13 3 -30 19 -16 17 -30 33 -30 36 0 5 49 34
58 36 2 0 17 -8 33 -17z m144 -3 c3 -5 -1 -10 -9 -10 -9 0 -16 5 -16 10 0 6 4
10 9 10 6 0 13 -4 16 -10z m151 -47 c29 -22 40 -23 180 -23 140 0 192 -8 165
-24 -6 -4 -11 -2 -11 3 0 7 -60 11 -181 11 -117 0 -178 3 -174 10 3 6 2 10 -4
10 -27 0 -14 -69 20 -106 12 -12 28 -20 35 -17 9 3 14 0 12 -7 -2 -7 9 -16 23
-20 15 -4 37 -18 49 -30 19 -19 21 -26 12 -41 -14 -22 -1 -33 29 -24 18 6 20
13 15 63 -3 34 -2 43 2 23 5 -22 15 -37 30 -42 12 -5 22 -4 22 0 0 5 13 4 30
-2 22 -9 27 -14 18 -24 -6 -8 -20 -11 -32 -8 -17 5 -18 4 -6 -4 8 -6 54 -11
103 -11 76 0 87 2 87 18 1 16 1 16 11 0 5 -10 22 -18 36 -18 15 0 24 -3 20 -6
-3 -3 -52 -6 -109 -5 l-103 1 -16 -28 c-9 -16 -14 -42 -12 -59 7 -45 81 -114
145 -134 41 -13 54 -21 59 -42 7 -26 6 -26 -54 -30 l-62 -4 65 -1 c130 -1 117
5 117 -54 0 -39 -1 -43 -4 -15 -2 20 -8 35 -14 32 -13 -8 -11 -51 6 -110 13
-47 14 -48 14 -16 l1 35 20 -22 c24 -25 31 -28 27 -9 -4 22 26 12 47 -16 17
-23 18 -30 7 -36 -18 -11 -32 -98 -17 -106 8 -3 7 -7 -1 -11 -7 -3 -9 -12 -6
-20 3 -8 0 -14 -6 -14 -6 0 -11 -7 -11 -15 0 -8 -7 -15 -15 -15 -20 0 -20 -49
1 -57 19 -7 82 52 90 84 6 21 12 23 72 23 l65 0 -6 -90 c-4 -49 -12 -121 -18
-160 l-12 -70 -76 -2 -76 -2 73 -3 c39 -2 72 -7 72 -11 0 -41 -96 -282 -112
-282 -5 0 -7 -4 -4 -9 3 -5 -16 -42 -42 -82 -90 -137 -222 -260 -285 -264 -18
-1 -40 -6 -49 -10 -26 -10 -23 -2 18 47 19 23 41 50 47 58 22 28 95 195 121
277 34 110 64 259 72 363 5 70 10 88 28 102 18 15 19 18 4 18 -15 0 -17 13
-17 121 0 67 -3 124 -6 127 -3 3 -5 -22 -5 -56 l0 -62 -80 0 c-63 0 -80 -3
-80 -14 0 -8 4 -17 10 -21 5 -3 7 -12 4 -19 -8 -21 9 -27 59 -20 38 5 48 11
58 35 18 44 29 35 29 -24 0 -54 -12 -77 -39 -77 -9 0 -38 -9 -66 -20 -35 -14
-41 -19 -20 -16 17 3 50 8 74 12 l44 6 -7 -83 c-22 -270 -130 -575 -249 -705
-38 -42 -56 -54 -81 -55 -17 -1 -23 -3 -13 -6 28 -7 9 -23 -28 -23 l-34 0 21
68 c11 37 29 130 40 207 12 77 23 142 25 144 2 3 9 -1 15 -7 15 -15 82 -16 73
-2 -3 6 -22 10 -41 10 -20 0 -37 6 -40 14 -3 7 -1 68 3 135 6 81 5 121 -2 121
-5 0 -11 -28 -12 -63 -1 -34 -5 -89 -8 -122 l-6 -60 -50 4 c-37 2 -55 -1 -69
-14 -13 -12 -27 -15 -45 -11 -30 8 -33 1 -4 -15 17 -9 25 -7 44 11 21 19 30
21 75 15 l52 -7 -7 -62 c-12 -98 -51 -277 -71 -324 -17 -38 -22 -42 -55 -42
-32 0 -39 5 -52 33 -19 42 -38 102 -36 113 1 5 -1 16 -4 24 -7 18 -27 127 -27
150 0 9 10 22 23 28 l22 12 -25 -3 c-17 -1 -26 4 -28 17 -3 16 1 18 27 14 18
-3 34 -1 37 4 3 4 -11 8 -31 8 l-36 0 16 31 c9 16 23 33 31 36 8 3 14 10 13
17 -6 45 58 106 111 106 29 0 57 48 73 127 8 39 18 76 22 82 14 24 24 -2 18
-51 -5 -37 -3 -49 5 -44 7 4 12 33 12 69 0 41 6 70 16 85 14 20 14 25 0 54 -9
17 -16 53 -16 81 0 42 2 48 17 43 16 -6 16 -6 0 12 -20 22 -22 74 -4 102 8 15
9 23 1 28 -6 4 -13 14 -16 22 -4 11 -8 8 -16 -10 -6 -15 -6 -29 -1 -34 10 -11
13 -216 4 -216 -4 0 -19 7 -34 14 -15 8 -37 12 -49 9 -13 -3 -35 4 -55 16 -38
23 -67 27 -84 10 -9 -9 -16 -8 -27 4 -18 17 -21 43 -7 52 12 7 -24 71 -44 79
-11 4 -16 26 -17 88 l-2 83 -3 -82 -4 -83 -29 0 c-20 0 -35 9 -50 30 -12 17
-27 30 -35 30 -7 0 -20 6 -27 13 -7 6 -32 13 -56 14 -24 0 -51 8 -60 16 -13
12 -20 12 -28 3 -6 -6 -9 -17 -6 -24 2 -6 -4 -12 -13 -12 -13 0 -14 4 -5 21 7
11 10 23 7 25 -7 8 -74 -25 -80 -38 -6 -16 -92 -17 -108 -1 -7 7 -7 23 1 53
15 55 8 72 -25 64 -21 -5 -25 -3 -25 15 0 20 2 20 362 21 199 0 364 2 366 5 3
3 -87 5 -199 5 -219 0 -282 6 -273 24 3 6 -1 3 -9 -6 -12 -15 -31 -18 -121
-18 l-107 0 3 26 c4 39 -18 41 -49 5 -15 -17 -35 -31 -45 -31 -26 0 -33 42
-13 85 10 19 15 39 11 42 -3 3 8 19 26 35 27 24 37 27 66 22 25 -5 33 -4 28 5
-5 8 4 11 32 9 38 -3 41 -5 46 -40 4 -21 11 -38 17 -38 7 0 9 11 5 30 -8 41
10 76 49 94 18 9 38 22 45 31 7 8 22 16 34 16 17 1 17 2 4 6 -10 2 -18 10 -18
16 0 20 17 40 28 33 5 -3 15 1 22 9 7 8 21 15 31 15 11 0 19 6 19 14 0 21 15
28 72 32 49 3 78 17 78 35 0 5 -9 4 -20 -3 -24 -15 -34 -6 -25 21 4 15 15 21
34 21 36 0 93 28 88 43 -2 7 -16 18 -30 25 -43 21 -32 34 26 31 36 -2 61 -10
83 -26z m495 -4 c36 -23 47 -34 37 -40 -8 -5 -22 1 -39 19 -14 15 -34 32 -45
39 -10 6 -16 12 -12 12 4 1 31 -13 59 -30z m209 -39 c97 -88 132 -125 123
-134 -3 -3 0 -14 8 -23 7 -10 -2 -4 -21 13 -50 44 -100 77 -100 65 0 -5 11
-18 25 -28 52 -37 71 -53 52 -47 -14 5 -16 2 -11 -12 4 -11 4 -16 0 -12 -4 3
-9 14 -10 25 -2 10 -11 17 -20 17 -10 -1 -15 0 -12 3 10 10 -42 43 -57 37 -17
-6 -31 -48 -28 -80 5 -51 -80 -24 -104 34 -13 30 -13 32 7 32 15 0 18 4 14 17
-6 15 -4 15 14 -2 17 -15 20 -16 20 -2 0 18 -46 57 -69 58 -11 0 -9 3 6 9 12
5 25 21 29 35 4 17 13 25 28 25 11 0 28 5 36 10 14 9 20 6 70 -40z m-242 22
c6 -18 -15 -14 -22 4 -4 10 -1 14 6 12 6 -2 14 -10 16 -16z m-560 -7 c-2 -1
-14 -8 -28 -14 -22 -11 -23 -10 -8 2 10 8 15 17 11 21 -4 4 1 4 10 0 10 -3 17
-8 15 -9z m-132 -64 c11 9 14 9 14 -1 0 -6 -9 -14 -20 -17 -11 -3 -20 -9 -20
-13 0 -4 -14 -10 -30 -12 l-30 -5 32 28 c18 15 35 23 36 18 2 -6 10 -5 18 2z
m624 -55 c0 -12 -5 -7 -19 24 -11 24 -11 24 3 6 9 -11 16 -24 16 -30z m-795
14 c-3 -5 -12 -10 -20 -10 -8 0 -17 5 -20 10 -4 6 5 10 20 10 15 0 24 -4 20
-10z m825 -85 c0 -5 -5 -3 -10 5 -5 8 -10 20 -10 25 0 6 5 3 10 -5 5 -8 10
-19 10 -25z m360 -35 c0 -5 7 -10 16 -10 8 0 12 -4 9 -10 -3 -5 -3 -15 1 -21
4 -8 9 -7 15 2 6 10 9 11 9 2 0 -7 18 -24 40 -38 43 -27 55 -31 45 -14 -10 16
-13 59 -4 53 5 -3 14 -24 20 -47 6 -23 14 -49 17 -57 16 -43 27 -250 13 -250
-6 0 -11 8 -12 18 -1 9 -6 -3 -11 -27 -7 -32 -12 -40 -19 -30 -6 10 -9 7 -9
-13 0 -18 -5 -28 -15 -28 -8 0 -15 -5 -15 -12 0 -9 -3 -9 -12 0 -15 15 -32 16
-23 2 3 -6 -1 -13 -9 -16 -9 -3 -16 -12 -16 -20 0 -8 -4 -14 -10 -14 -5 0 -10
5 -10 10 0 6 -6 5 -14 -2 -10 -10 -11 -15 -2 -21 6 -5 -4 -5 -21 -2 -22 4 -33
3 -33 -5 0 -6 4 -8 10 -5 5 3 19 1 30 -5 15 -8 20 -21 20 -50 l0 -40 -60 0
c-33 0 -60 3 -60 7 0 3 12 22 27 41 l26 35 -29 21 c-37 27 -127 123 -136 144
-3 10 -4 33 -1 53 3 20 -1 50 -10 70 -12 30 -12 39 -1 60 7 13 13 31 14 40 0
9 11 28 25 43 18 20 22 32 16 48 -4 12 -3 34 3 50 10 27 21 32 58 29 10 -1 25
2 33 6 23 13 85 15 85 3z m-243 -16 c-3 -3 -12 -4 -19 -1 -8 3 -5 6 6 6 11 1
17 -2 13 -5z m-56 -151 c12 -54 28 -105 35 -114 19 -21 17 -29 -5 -29 -15 0
-18 5 -14 23 3 16 2 18 -5 8 -5 -7 -15 -10 -21 -7 -16 10 -14 26 4 26 19 0 19
-2 -5 98 -22 91 -22 92 -16 92 3 0 15 -44 27 -97z m399 -388 c6 -16 15 -23 24
-19 19 7 37 -26 29 -54 -5 -20 -12 -22 -69 -22 l-64 0 0 46 c0 33 5 51 18 60
27 21 52 16 62 -11z m-203 -1 c3 -9 -6 -27 -23 -45 -34 -36 -53 -38 -25 -3 11
15 18 30 15 35 -6 11 4 29 17 29 5 0 12 -7 16 -16z m248 -113 c-3 -5 4 -33 15
-62 19 -46 20 -60 10 -126 -5 -42 -17 -81 -26 -90 -8 -9 -13 -21 -11 -27 3 -8
-16 -10 -67 -8 -39 2 -72 6 -74 7 -2 2 1 29 7 61 6 33 14 103 18 156 l6 98 64
0 c37 0 62 -4 58 -9z m-1595 -386 c9 -33 29 -89 44 -125 46 -108 48 -100 -33
-100 l-71 0 -27 43 c-29 47 -88 176 -98 220 l-7 28 87 -3 88 -3 17 -60z m246
28 c3 -21 17 -82 30 -135 13 -53 24 -101 24 -107 0 -7 -36 -11 -101 -11 l-100
0 -29 63 c-29 65 -70 189 -70 213 0 11 24 14 120 14 l119 0 7 -37z m1327 24
c10 -26 -3 -101 -27 -154 -20 -41 -23 -59 -16 -78 7 -19 6 -25 -4 -25 -8 0
-17 -6 -19 -12 -4 -9 -6 -8 -6 2 -1 9 4 21 11 28 6 6 9 14 6 18 -4 3 -14 -8
-23 -25 -15 -30 -17 -31 -90 -31 l-74 0 33 78 c18 42 41 107 52 145 l19 67 66
0 c45 0 68 -4 72 -13z m-1288 -77 c4 -47 3 -60 -4 -49 -15 23 -27 137 -13 124
6 -5 13 -39 17 -75z m280 -222 c6 -6 5 -12 -5 -18 -21 -14 -24 -13 -37 16 -11
23 -10 24 10 18 12 -3 26 -10 32 -16z m-467 0 c7 -7 12 -18 12 -25 0 -7 7 -21
16 -30 24 -27 114 -151 114 -158 0 -3 -21 -5 -47 -5 -47 0 -50 1 -128 84 -44
46 -88 98 -98 115 l-18 31 68 0 c40 0 74 -5 81 -12z m32 -4 c0 -8 -4 -12 -10
-9 -5 3 -10 10 -10 16 0 5 5 9 10 9 6 0 10 -7 10 -16z m175 -3 c-3 -11 4 -42
16 -70 12 -28 19 -58 15 -67 -3 -8 1 -25 9 -37 8 -12 15 -25 15 -29 0 -15 -88
-8 -104 7 -43 44 -86 104 -86 123 0 11 -9 27 -21 35 -17 13 -19 19 -10 36 10
19 21 21 92 21 75 0 80 -1 74 -19z m1155 10 c0 -14 -72 -100 -137 -164 -58
-56 -61 -58 -108 -55 l-48 3 36 43 c20 24 56 75 79 113 l43 69 68 0 c37 0 67
-4 67 -9z m84 -3 c-40 -68 -204 -218 -236 -218 -26 0 -23 5 27 51 25 23 68 72
97 110 47 61 57 69 86 69 24 0 31 -4 26 -12z m-970 -57 c3 -9 10 -50 16 -91 6
-41 21 -106 32 -144 16 -56 17 -70 6 -77 -7 -5 -16 -9 -20 -9 -13 0 -9 18 5
23 9 4 9 7 0 18 -11 11 -16 9 -28 -7 -8 -10 -15 -14 -15 -9 0 6 -4 3 -10 -5
-5 -8 -10 -12 -12 -10 -2 3 -21 25 -42 49 -29 33 -35 45 -25 52 10 6 6 13 -15
30 -22 18 -27 28 -22 50 3 16 1 29 -6 31 -8 3 -7 10 1 27 10 17 10 26 0 37 -9
11 -9 14 2 14 8 0 20 9 26 19 16 25 100 27 107 2z m-171 -187 c26 -13 127
-109 127 -121 0 -2 -13 -3 -28 -3 -39 0 -212 110 -212 134 0 13 83 5 113 -10z
m814 -7 c-43 -36 -165 -99 -184 -95 -11 2 5 21 53 60 61 50 74 57 114 57 l45
0 -28 -22z m-387 -157 c0 -5 -2 -10 -4 -10 -3 0 -8 5 -11 10 -3 6 -1 10 4 10
6 0 11 -4 11 -10z m-130 -10 c22 -7 21 -8 -12 -9 -21 -1 -38 4 -38 9 0 11 14
11 50 0z m50 -10 c0 -5 -4 -10 -10 -10 -5 0 -10 5 -10 10 0 6 5 10 10 10 6 0
10 -4 10 -10z"/>
<path d="M985 1990 c-4 -12 -5 -24 -2 -27 3 -2 8 5 12 17 4 12 5 24 2 27 -3 2
-8 -5 -12 -17z"/>
<path d="M981 1927 c-5 -14 -16 -27 -23 -30 -10 -4 -10 -7 2 -16 11 -8 17 -2
27 27 14 41 9 58 -6 19z"/>
<path d="M1028 1793 c7 -3 16 -2 19 1 4 3 -2 6 -13 5 -11 0 -14 -3 -6 -6z"/>
<path d="M690 1770 c0 -13 11 -13 30 0 12 8 11 10 -7 10 -13 0 -23 -4 -23 -10z"/>
<path d="M1070 1760 c36 -4 69 -3 75 2 5 4 -25 7 -65 6 l-75 -1 65 -7z"/>
<path d="M1198 1763 c6 -2 18 -2 25 0 6 3 1 5 -13 5 -14 0 -19 -2 -12 -5z"/>
<path d="M1152 1730 c0 -14 2 -19 5 -12 2 6 2 18 0 25 -3 6 -5 1 -5 -13z"/>
<path d="M1232 1725 c0 -16 2 -22 5 -12 2 9 2 23 0 30 -3 6 -5 -1 -5 -18z"/>
<path d="M951 1714 c0 -11 3 -14 6 -6 3 7 2 16 -1 19 -3 4 -6 -2 -5 -13z"/>
<path d="M1242 1615 c0 -16 2 -22 5 -12 2 9 2 23 0 30 -3 6 -5 -1 -5 -18z"/>
<path d="M941 1594 c0 -11 3 -14 6 -6 3 7 2 16 -1 19 -3 4 -6 -2 -5 -13z"/>
<path d="M460 1552 c0 -5 13 -7 29 -4 23 3 36 -2 54 -22 13 -14 32 -26 41 -26
29 0 16 14 -32 38 -47 22 -92 29 -92 14z"/>
<path d="M1321 1470 c-11 -6 -10 -12 3 -32 9 -14 13 -28 9 -31 -3 -4 -1 -7 6
-7 19 0 23 24 8 52 -9 18 -18 24 -26 18z"/>
<path d="M622 1410 c0 -14 2 -19 5 -12 2 6 2 18 0 25 -3 6 -5 1 -5 -13z"/>
<path d="M1408 1246 c-16 -11 -16 -14 -2 -28 13 -12 14 -20 5 -36 -6 -11 -11
-23 -11 -26 0 -3 36 -6 80 -6 52 0 80 4 80 11 0 6 -7 8 -15 5 -9 -3 -18 1 -21
9 -4 8 -12 15 -20 15 -7 0 -17 6 -21 13 -4 6 -19 22 -33 34 -21 18 -28 19 -42
9z"/>
<path d="M1328 1143 c7 -3 16 -2 19 1 4 3 -2 6 -13 5 -11 0 -14 -3 -6 -6z"/>
<path d="M1360 1121 c0 -18 -4 -22 -17 -17 -10 4 -14 4 -11 0 4 -3 1 -19 -7
-35 -18 -33 -18 -39 -5 -39 6 0 16 12 22 28 l12 27 4 -32 c3 -34 21 -47 21
-15 0 9 2 29 4 43 2 14 -2 34 -10 44 -12 18 -13 18 -13 -4z"/>
<path d="M1437 673 c-4 -3 -7 -11 -7 -17 0 -6 5 -5 12 2 6 6 9 14 7 17 -3 3
-9 2 -12 -2z"/>
<path d="M1421 622 c-17 -31 -13 -40 5 -14 9 13 14 26 11 29 -3 2 -10 -4 -16
-15z"/>
<path d="M1396 563 c-6 -14 -5 -15 5 -6 7 7 10 15 7 18 -3 3 -9 -2 -12 -12z"/>
<path d="M1648 503 c6 -2 18 -2 25 0 6 3 1 5 -13 5 -14 0 -19 -2 -12 -5z"/>
<path d="M1488 263 c7 -3 16 -2 19 1 4 3 -2 6 -13 5 -11 0 -14 -3 -6 -6z"/>
<path d="M1098 133 c6 -2 18 -2 25 0 6 3 1 5 -13 5 -14 0 -19 -2 -12 -5z"/>
<path d="M585 390 c10 -11 24 -20 32 -20 7 0 13 -4 13 -10 0 -17 41 -33 53
-21 8 8 8 11 0 11 -7 0 -32 14 -56 30 -52 35 -68 39 -42 10z"/>
<path d="M900 414 c0 -16 17 -37 27 -33 6 2 2 13 -8 23 -11 11 -19 15 -19 10z"/>
<path d="M877 263 c18 -2 50 -2 70 0 21 2 7 4 -32 4 -38 0 -55 -2 -38 -4z"/>
<path d="M52 1315 c0 -16 2 -22 5 -12 2 9 2 23 0 30 -3 6 -5 -1 -5 -18z"/>
<path d="M152 1305 c0 -16 2 -22 5 -12 2 9 2 23 0 30 -3 6 -5 -1 -5 -18z"/>
<path d="M343 1230 c0 -41 2 -58 4 -37 2 20 2 54 0 75 -2 20 -4 3 -4 -38z"/>
<path d="M43 1230 c0 -25 2 -35 4 -22 2 12 2 32 0 45 -2 12 -4 2 -4 -23z"/>
<path d="M43 1040 c0 -25 2 -35 4 -22 2 12 2 32 0 45 -2 12 -4 2 -4 -23z"/>
<path d="M52 955 c0 -16 2 -22 5 -12 2 9 2 23 0 30 -3 6 -5 -1 -5 -18z"/>
<path d="M61 904 c0 -11 3 -14 6 -6 3 7 2 16 -1 19 -3 4 -6 -2 -5 -13z"/>
<path d="M71 864 c0 -11 3 -14 6 -6 3 7 2 16 -1 19 -3 4 -6 -2 -5 -13z"/>
<path d="M120 716 c0 -10 60 -126 65 -126 3 0 -9 28 -26 63 -33 65 -39 75 -39
63z"/>
</g>
</svg>
